<?xml version="1.0" encoding="UTF-8" standalone="no"?>
<!-- Created with Inkscape (http://www.inkscape.org/) -->

<svg
   xmlns:dc="http://purl.org/dc/elements/1.1/"
   xmlns:cc="http://creativecommons.org/ns#"
   xmlns:rdf="http://www.w3.org/1999/02/22-rdf-syntax-ns#"
   xmlns:svg="http://www.w3.org/2000/svg"
   xmlns="http://www.w3.org/2000/svg"
   xmlns:sodipodi="http://sodipodi.sourceforge.net/DTD/sodipodi-0.dtd"
   xmlns:inkscape="http://www.inkscape.org/namespaces/inkscape"
   width="66.820007mm"
   height="13.472989mm"
   viewBox="0 0 236.76381 47.738939"
   id="svg4214"
   version="1.1"
   inkscape:version="0.91 r13725"
   sodipodi:docname="name.svg"
   inkscape:export-filename="/Users/b77/Dropbox/sites/b7th/public/name.png"
   inkscape:export-xdpi="179.28999"
   inkscape:export-ydpi="179.28999">
  <defs
     id="defs4216" />
  <sodipodi:namedview
     id="base"
     pagecolor="#ffffff"
     bordercolor="#666666"
     borderopacity="1.0"
     inkscape:pageopacity="0.0"
     inkscape:pageshadow="2"
     inkscape:zoom="2.8"
     inkscape:cx="172.02683"
     inkscape:cy="17.293646"
     inkscape:document-units="px"
     inkscape:current-layer="g4195"
     showgrid="false"
     fit-margin-top="1"
     fit-margin-left="1"
     fit-margin-right="1"
     fit-margin-bottom="1"
     inkscape:window-width="1440"
     inkscape:window-height="825"
     inkscape:window-x="0"
     inkscape:window-y="0"
     inkscape:window-maximized="1" />
  <metadata
     id="metadata4219">
    <rdf:RDF>
      <cc:Work
         rdf:about="">
        <dc:format>image/svg+xml</dc:format>
        <dc:type
           rdf:resource="http://purl.org/dc/dcmitype/StillImage" />
        <dc:title />
      </cc:Work>
    </rdf:RDF>
  </metadata>
  <g
     inkscape:label="Layer 1"
     inkscape:groupmode="layer"
     id="layer1"
     transform="translate(-218.76095,-437.06416)">
    <g
       transform="matrix(3.5433071,0,0,3.5433071,151.60811,440.50687)"
       id="g4195">
      <path
         style="font-style:normal;font-variant:normal;font-weight:normal;font-stretch:normal;font-size:25px;line-height:93.99999976%;font-family:Optima;-inkscape-font-specification:Optima;text-align:end;letter-spacing:0px;word-spacing:0px;text-anchor:end;fill:#ffffff;fill-opacity:1;stroke:none;stroke-width:1px;stroke-linecap:butt;stroke-linejoin:miter;stroke-opacity:1"
         d="M 6.3457031 3.5429688 C 6.1916034 5.0839656 6.0087621 6.7114222 5.796875 8.4257812 C 5.5849879 10.120878 5.3539276 11.844772 5.1035156 13.597656 C 4.8531036 15.35054 4.5938931 17.094503 4.3242188 18.828125 C 4.0545443 20.561747 3.7933807 22.209272 3.5429688 23.769531 C 3.851168 23.731011 4.1887007 23.710938 4.5546875 23.710938 C 4.9206743 23.710938 5.258207 23.731011 5.5664062 23.769531 C 5.5664062 22.999033 5.6146252 22.016538 5.7109375 20.822266 C 5.8072495 19.608731 5.9218034 18.326888 6.0566406 16.978516 C 6.1914779 15.610881 6.3361347 14.234554 6.4902344 12.847656 C 6.6635965 11.441497 6.8182878 10.141538 6.953125 8.9472656 L 7.0097656 8.9472656 C 8.2810881 11.489911 9.5428621 13.983355 10.794922 16.429688 C 12.066244 18.856757 13.279799 21.283867 14.435547 23.710938 L 14.695312 23.710938 C 15.85106 21.091243 17.064615 18.587764 18.335938 16.199219 C 19.626521 13.791411 20.936515 11.374336 22.265625 8.9472656 L 22.324219 8.9472656 C 22.632418 11.451386 22.891629 13.906645 23.103516 16.314453 C 23.315403 18.722261 23.528347 21.207624 23.740234 23.769531 C 23.971384 23.731011 24.19241 23.710938 24.404297 23.710938 L 25.097656 23.710938 L 25.761719 23.710938 C 25.992868 23.710938 26.223929 23.731011 26.455078 23.769531 C 26.223929 22.170747 26.012937 20.561406 25.820312 18.943359 C 25.627689 17.30605 25.434811 15.658525 25.242188 14.001953 C 25.049563 12.326119 24.856687 10.632328 24.664062 8.9179688 C 24.490701 7.1843472 24.297824 5.392165 24.085938 3.5429688 L 23.710938 3.5429688 C 23.229376 4.4290419 22.709002 5.3833864 22.150391 6.4042969 C 21.591779 7.4252074 21.023186 8.4640021 20.445312 9.5234375 C 19.886702 10.582873 19.328143 11.633655 18.769531 12.673828 C 18.230182 13.694739 17.719843 14.649083 17.238281 15.535156 C 16.75672 16.42123 16.332784 17.210848 15.966797 17.904297 C 15.60081 18.578483 15.321531 19.096904 15.128906 19.462891 C 13.645701 16.746883 12.22115 14.098748 10.853516 11.517578 C 9.5051429 8.9364083 8.1670005 6.2782383 6.8378906 3.5429688 L 6.3457031 3.5429688 z M 63.960938 3.5429688 C 63.556426 3.5429688 63.208859 3.6876256 62.919922 3.9765625 C 62.630985 4.2654994 62.486328 4.6130664 62.486328 5.0175781 C 62.486328 5.4220898 62.630985 5.7677037 62.919922 6.0566406 C 63.208859 6.3455776 63.556426 6.4902344 63.960938 6.4902344 C 64.365448 6.4902344 64.711063 6.3455776 65 6.0566406 C 65.288937 5.7677037 65.433594 5.4220898 65.433594 5.0175781 C 65.433594 4.6130664 65.288937 4.2654994 65 3.9765625 C 64.711063 3.6876256 64.365448 3.5429687 63.960938 3.5429688 z M 105.08594 3.5429688 C 103.39084 3.5429688 101.83975 3.774029 100.43359 4.2363281 C 99.0467 4.6986272 97.861292 5.3736924 96.878906 6.2597656 C 95.896521 7.1458389 95.137005 8.2328525 94.597656 9.5234375 C 94.058307 10.79476 93.787109 12.249409 93.787109 13.886719 C 93.787109 15.581815 94.048273 17.074649 94.568359 18.365234 C 95.088446 19.655819 95.829846 20.734753 96.792969 21.601562 C 97.756092 22.468373 98.921431 23.113335 100.28906 23.537109 C 101.67596 23.941621 103.22705 24.144531 104.94141 24.144531 C 105.50002 24.144531 106.11488 24.096311 106.78906 24 C 107.48251 23.92295 108.16761 23.826511 108.8418 23.710938 C 109.53525 23.614628 110.18021 23.490036 110.77734 23.335938 C 111.39374 23.162575 111.90408 22.99785 112.30859 22.84375 C 112.30859 22.458501 112.2986 22.074702 112.2793 21.689453 L 112.2793 20.503906 C 112.2793 18.943647 112.28929 17.691908 112.30859 16.748047 C 112.32789 15.784924 112.35603 15.081709 112.39453 14.638672 C 112.20191 14.696462 112.00095 14.734642 111.78906 14.753906 C 111.57718 14.773166 111.36423 14.783203 111.15234 14.783203 C 110.70931 14.783203 110.24719 14.734983 109.76562 14.638672 C 109.80412 15.255071 109.83422 15.900033 109.85352 16.574219 C 109.89202 17.248405 109.91016 17.92347 109.91016 18.597656 C 109.91016 19.194793 109.90016 19.781501 109.88086 20.359375 C 109.88086 20.937249 109.87282 21.515876 109.85352 22.09375 C 109.6031 22.24785 109.29372 22.382472 108.92773 22.498047 C 108.58101 22.613622 108.19526 22.71006 107.77148 22.787109 C 107.36697 22.864159 106.94499 22.920459 106.50195 22.958984 C 106.05892 22.997504 105.63498 23.017578 105.23047 23.017578 C 103.8821 23.017578 102.66854 22.806587 101.58984 22.382812 C 100.53041 21.959039 99.624283 21.360342 98.873047 20.589844 C 98.141073 19.800083 97.582515 18.837657 97.197266 17.701172 C 96.812016 16.564687 96.619141 15.292878 96.619141 13.886719 C 96.619141 12.287934 96.832085 10.911607 97.255859 9.7558594 C 97.698896 8.5808492 98.295639 7.6164704 99.046875 6.8652344 C 99.817373 6.0947359 100.71346 5.5280962 101.73438 5.1621094 C 102.77454 4.7961226 103.89166 4.6132813 105.08594 4.6132812 C 105.81791 4.6132812 106.50106 4.6996842 107.13672 4.8730469 C 107.79164 5.0271466 108.37835 5.238138 108.89844 5.5078125 C 109.43779 5.7582245 109.91998 6.0575726 110.34375 6.4042969 C 110.78679 6.7510212 111.15247 7.0966351 111.44141 7.4433594 L 111.78906 7.4433594 C 111.82756 7.0773726 111.90396 6.6835398 112.01953 6.2597656 C 112.15437 5.8359915 112.29904 5.4884245 112.45312 5.21875 C 112.10641 5.0453878 111.71061 4.8625465 111.26758 4.6699219 C 110.82454 4.4772973 110.30612 4.2944558 109.70898 4.1210938 C 109.13111 3.9477316 108.45605 3.8131092 107.68555 3.7167969 C 106.93431 3.6012221 106.06832 3.5429686 105.08594 3.5429688 z M 143.57227 3.5429688 C 141.87717 3.5429688 140.32608 3.774029 138.91992 4.2363281 C 137.53302 4.6986272 136.34957 5.3736924 135.36719 6.2597656 C 134.3848 7.1458389 133.62333 8.2328525 133.08398 9.5234375 C 132.54464 10.79476 132.27539 12.249409 132.27539 13.886719 C 132.27539 15.581815 132.5346 17.074649 133.05469 18.365234 C 133.57477 19.655819 134.31617 20.734753 135.2793 21.601562 C 136.24242 22.468373 137.40776 23.113335 138.77539 23.537109 C 140.16229 23.941621 141.71338 24.144531 143.42773 24.144531 C 143.98635 24.144531 144.60316 24.096311 145.27734 24 C 145.97079 23.92295 146.65395 23.826511 147.32812 23.710938 C 148.02157 23.614628 148.66654 23.490036 149.26367 23.335938 C 149.88007 23.162575 150.39236 22.99785 150.79688 22.84375 C 150.79688 22.458501 150.78688 22.074702 150.76758 21.689453 L 150.76758 20.503906 C 150.76758 18.943647 150.77758 17.691908 150.79688 16.748047 C 150.81617 15.784924 150.84431 15.081709 150.88281 14.638672 C 150.69019 14.696462 150.48728 14.734642 150.27539 14.753906 C 150.0635 14.773166 149.85251 14.783203 149.64062 14.783203 C 149.1976 14.783203 148.73547 14.734983 148.25391 14.638672 C 148.29241 15.255071 148.32064 15.900033 148.33984 16.574219 C 148.37834 17.248405 148.39844 17.92347 148.39844 18.597656 C 148.39844 19.194793 148.38844 19.781501 148.36914 20.359375 C 148.36914 20.937249 148.35914 21.515876 148.33984 22.09375 C 148.08943 22.24785 147.782 22.382472 147.41602 22.498047 C 147.06929 22.613622 146.68354 22.71006 146.25977 22.787109 C 145.85525 22.864159 145.43132 22.920459 144.98828 22.958984 C 144.54524 22.997504 144.12131 23.017578 143.7168 23.017578 C 142.36842 23.017578 141.15487 22.806587 140.07617 22.382812 C 139.01674 21.959039 138.11256 21.360342 137.36133 20.589844 C 136.62935 19.800083 136.06884 18.837657 135.68359 17.701172 C 135.29834 16.564687 135.10742 15.292878 135.10742 13.886719 C 135.10742 12.287934 135.31841 10.911607 135.74219 9.7558594 C 136.18522 8.5808492 136.78197 7.6164704 137.5332 6.8652344 C 138.3037 6.0947359 139.19979 5.5280962 140.2207 5.1621094 C 141.26088 4.7961226 142.37799 4.6132813 143.57227 4.6132812 C 144.30424 4.6132812 144.98739 4.6996842 145.62305 4.8730469 C 146.27797 5.0271466 146.86663 5.238138 147.38672 5.5078125 C 147.92607 5.7582245 148.40826 6.0575726 148.83203 6.4042969 C 149.27507 6.7510212 149.64075 7.0966351 149.92969 7.4433594 L 150.27539 7.4433594 C 150.31389 7.0773726 150.39224 6.6835398 150.50781 6.2597656 C 150.64265 5.8359915 150.78535 5.4884245 150.93945 5.21875 C 150.59273 5.0453878 150.1989 4.8625465 149.75586 4.6699219 C 149.31282 4.4772973 148.79245 4.2944558 148.19531 4.1210938 C 147.61744 3.9477316 146.94433 3.8131092 146.17383 3.7167969 C 145.42259 3.6012221 144.55465 3.5429686 143.57227 3.5429688 z M 56.554688 6.171875 L 54.15625 7.1835938 C 54.19477 7.7999924 54.214844 8.3967355 54.214844 8.9746094 C 54.234104 9.5524832 54.252224 10.034673 54.271484 10.419922 C 53.866973 10.419922 53.232045 10.391774 52.365234 10.333984 C 52.384494 10.430294 52.394531 10.526735 52.394531 10.623047 C 52.413791 10.719357 52.423828 10.815797 52.423828 10.912109 C 52.423828 11.027684 52.413801 11.142239 52.394531 11.257812 C 52.394531 11.354122 52.384504 11.460597 52.365234 11.576172 C 52.557859 11.556912 52.740701 11.546875 52.914062 11.546875 C 53.087425 11.527615 53.250197 11.517578 53.404297 11.517578 L 54.330078 11.517578 C 54.330078 12.596276 54.320051 13.57877 54.300781 14.464844 C 54.281521 15.331655 54.253374 16.131308 54.214844 16.863281 C 54.195584 17.575992 54.17551 18.241023 54.15625 18.857422 C 54.13699 19.454558 54.126953 20.013117 54.126953 20.533203 C 54.126953 21.688951 54.416267 22.564973 54.994141 23.162109 C 55.572014 23.759246 56.468106 24.058594 57.681641 24.058594 C 58.047627 24.058594 58.423345 24.010374 58.808594 23.914062 C 59.213105 23.837013 59.578788 23.768724 59.90625 23.710938 L 59.90625 23.017578 C 59.713625 23.075368 59.482565 23.123584 59.212891 23.162109 C 58.962479 23.200629 58.759568 23.220703 58.605469 23.220703 C 58.027595 23.220703 57.585543 23.094162 57.277344 22.84375 C 56.969144 22.593338 56.738084 22.26584 56.583984 21.861328 C 56.429885 21.437554 56.333447 20.965399 56.294922 20.445312 C 56.275662 19.925227 56.265625 19.396771 56.265625 18.857422 L 56.265625 16.689453 C 56.284885 15.88043 56.304959 15.11088 56.324219 14.378906 C 56.343479 13.62767 56.361599 12.982708 56.380859 12.443359 C 56.419379 11.90401 56.44949 11.594628 56.46875 11.517578 L 57.882812 11.517578 C 58.191012 11.517578 58.480326 11.527615 58.75 11.546875 C 58.977593 11.546875 61.681877 11.558453 62.785156 11.572266 C 62.806627 11.949969 62.82597 12.331423 62.833984 12.732422 C 62.852874 13.67688 62.890625 14.580455 62.890625 15.447266 L 62.890625 18.453125 C 62.890625 19.319936 62.872504 20.234143 62.833984 21.197266 C 62.814724 22.141126 62.756474 22.999033 62.660156 23.769531 C 63.103193 23.731011 63.537163 23.710938 63.960938 23.710938 C 64.384711 23.710938 64.816729 23.731011 65.259766 23.769531 C 65.163456 22.999033 65.097119 22.141126 65.058594 21.197266 C 65.039334 20.234143 65.029297 19.319936 65.029297 18.453125 L 65.029297 15.447266 C 65.029297 14.580455 65.039324 13.676283 65.058594 12.732422 C 65.097124 11.769299 65.163453 10.873208 65.259766 10.044922 C 65.242097 10.055489 65.140172 10.070508 65.09375 10.082031 C 64.289322 10.126881 58.222883 10.430203 57.652344 10.449219 L 56.46875 10.449219 C 56.50727 9.7365075 56.535418 9.0332923 56.554688 8.3398438 C 56.593207 7.6271327 56.641428 6.9038486 56.699219 6.171875 L 56.554688 6.171875 z M 34.970703 9.7558594 C 34.200205 9.7558594 33.44877 9.8704135 32.716797 10.101562 C 31.984823 10.332712 31.18517 10.776717 30.318359 11.431641 L 30.318359 12.933594 L 30.636719 12.933594 C 30.964181 12.317195 31.454451 11.835006 32.109375 11.488281 C 32.783561 11.141557 33.506845 10.96875 34.277344 10.96875 C 34.855218 10.96875 35.345488 11.075222 35.75 11.287109 C 36.154512 11.479734 36.48201 11.738944 36.732422 12.066406 C 36.982834 12.393868 37.165675 12.77962 37.28125 13.222656 C 37.396825 13.665693 37.455078 14.127813 37.455078 14.609375 C 37.455078 14.898312 37.426931 15.139407 37.369141 15.332031 C 37.311351 15.505393 37.136593 15.660085 36.847656 15.794922 C 36.577982 15.929759 36.145964 16.064382 35.548828 16.199219 C 34.970954 16.314794 34.161267 16.459451 33.121094 16.632812 C 31.849771 16.8447 30.847208 17.268636 30.115234 17.904297 C 29.402523 18.539958 29.046875 19.434096 29.046875 20.589844 C 29.046875 21.148455 29.153347 21.650713 29.365234 22.09375 C 29.596384 22.517524 29.885698 22.883207 30.232422 23.191406 C 30.598409 23.499606 31.01231 23.720632 31.474609 23.855469 C 31.936908 23.990306 32.409063 24.058594 32.890625 24.058594 C 33.873011 24.058594 34.700814 23.893868 35.375 23.566406 C 36.049186 23.238944 36.732333 22.728605 37.425781 22.035156 C 37.483571 22.53598 37.676444 22.949882 38.003906 23.277344 C 38.331368 23.585543 38.803523 23.740234 39.419922 23.740234 C 39.805171 23.740234 40.152738 23.712087 40.460938 23.654297 C 40.788398 23.596507 41.057644 23.518187 41.269531 23.421875 L 41.269531 22.787109 C 41.173221 22.844899 41.066747 22.883079 40.951172 22.902344 L 40.662109 22.902344 C 40.373172 22.902344 40.152147 22.834054 39.998047 22.699219 C 39.86321 22.564382 39.756736 22.401609 39.679688 22.208984 C 39.602638 21.997097 39.554419 21.766037 39.535156 21.515625 L 39.535156 20.763672 C 39.535156 19.550137 39.55523 18.40487 39.59375 17.326172 C 39.63227 16.228212 39.650391 15.12921 39.650391 14.03125 C 39.650391 13.395589 39.535836 12.818915 39.304688 12.298828 C 39.073538 11.759479 38.756074 11.30544 38.351562 10.939453 C 37.947052 10.554204 37.454827 10.266843 36.876953 10.074219 C 36.299079 9.8623315 35.664144 9.7558564 34.970703 9.7558594 z M 50.515625 9.7558594 C 49.109465 9.7558594 47.83961 10.794654 46.703125 12.875 L 46.644531 12.847656 L 46.644531 11.691406 C 46.663791 11.286895 46.712012 10.738371 46.789062 10.044922 C 46.577176 10.083442 46.374265 10.121632 46.181641 10.160156 C 45.989016 10.179416 45.806175 10.189453 45.632812 10.189453 C 45.420926 10.189453 45.219968 10.179426 45.027344 10.160156 C 44.834719 10.121636 44.631809 10.083446 44.419922 10.044922 C 44.477712 11.316244 44.505859 12.443396 44.505859 13.425781 C 44.525119 14.408167 44.535156 15.274155 44.535156 16.025391 L 44.535156 16.949219 C 44.535156 18.586528 44.525129 19.974843 44.505859 21.111328 C 44.505859 22.228551 44.477712 23.114608 44.419922 23.769531 C 44.805171 23.731011 45.209039 23.710937 45.632812 23.710938 C 46.018062 23.710938 46.403814 23.731011 46.789062 23.769531 C 46.731273 23.345757 46.693092 22.79528 46.673828 22.121094 L 46.673828 19.146484 L 46.673828 15.966797 C 46.673828 15.408185 46.740168 14.889765 46.875 14.408203 C 47.009837 13.907379 47.202713 13.483443 47.453125 13.136719 C 47.703537 12.770732 48.012919 12.481418 48.378906 12.269531 C 48.744893 12.057644 49.158795 11.951172 49.621094 11.951172 C 49.910031 11.951172 50.18931 11.999392 50.458984 12.095703 C 50.747921 12.192013 50.940797 12.298489 51.037109 12.414062 L 51.238281 12.269531 C 51.238281 11.884282 51.248318 11.460346 51.267578 10.998047 C 51.286838 10.516485 51.345098 10.160837 51.441406 9.9296875 C 51.248782 9.8526375 51.084056 9.8044187 50.949219 9.7851562 C 50.833644 9.7658943 50.688994 9.7558634 50.515625 9.7558594 z M 77.203125 9.7558594 C 76.162952 9.7558594 75.266861 9.9869195 74.515625 10.449219 C 73.764389 10.892255 73.119427 11.527183 72.580078 12.355469 L 72.523438 12.355469 C 72.523438 11.58497 72.551585 10.81542 72.609375 10.044922 C 72.358963 10.083442 72.137937 10.121632 71.945312 10.160156 C 71.771951 10.179416 71.607225 10.189453 71.453125 10.189453 C 71.125663 10.189453 70.691693 10.141233 70.152344 10.044922 C 70.248654 10.873208 70.306909 11.769299 70.326172 12.732422 C 70.364702 13.676283 70.384766 14.580455 70.384766 15.447266 L 70.384766 18.453125 C 70.384766 19.319936 70.364692 20.234143 70.326172 21.197266 C 70.306912 22.141126 70.248652 22.999033 70.152344 23.769531 C 70.59538 23.731011 71.029351 23.710937 71.453125 23.710938 C 71.876899 23.710938 72.31087 23.731011 72.753906 23.769531 C 72.657596 22.999033 72.589306 22.141126 72.550781 21.197266 C 72.531521 20.234143 72.523438 19.319936 72.523438 18.453125 L 72.523438 15.996094 C 72.523438 14.493622 72.830867 13.328286 73.447266 12.5 C 74.082927 11.671714 75.075456 11.257813 76.423828 11.257812 C 77.406214 11.257812 78.175764 11.63353 78.734375 12.384766 C 79.292986 13.116739 79.572266 14.205706 79.572266 15.650391 L 79.572266 17.412109 C 79.572266 18.529332 79.544118 19.618299 79.486328 20.677734 C 79.447798 21.73717 79.409618 22.767883 79.371094 23.769531 C 79.756343 23.731011 80.150176 23.710938 80.554688 23.710938 C 80.978461 23.710938 81.382329 23.731011 81.767578 23.769531 C 81.748318 23.499857 81.730197 23.220578 81.710938 22.931641 L 81.710938 22.005859 L 81.710938 20.128906 C 81.710938 19.146521 81.729048 18.22228 81.767578 17.355469 C 81.806098 16.469395 81.826172 15.611489 81.826172 14.783203 C 81.826172 13.781555 81.681515 12.961833 81.392578 12.326172 C 81.122904 11.671248 80.767255 11.160909 80.324219 10.794922 C 79.881182 10.40967 79.380877 10.140428 78.822266 9.9863281 C 78.282917 9.8322284 77.742474 9.7558594 77.203125 9.7558594 z M 160.13867 9.7558594 C 159.36817 9.7558594 158.61674 9.8704135 157.88477 10.101562 C 157.15279 10.332712 156.35314 10.776717 155.48633 11.431641 L 155.48633 12.933594 L 155.80469 12.933594 C 156.13215 12.317195 156.62242 11.835006 157.27734 11.488281 C 157.95153 11.141557 158.67481 10.96875 159.44531 10.96875 C 160.02319 10.96875 160.51346 11.075222 160.91797 11.287109 C 161.32248 11.479734 161.64998 11.738944 161.90039 12.066406 C 162.1508 12.393868 162.33364 12.77962 162.44922 13.222656 C 162.56479 13.665693 162.62305 14.127813 162.62305 14.609375 C 162.62305 14.898312 162.59481 15.139407 162.53711 15.332031 C 162.47931 15.505393 162.30652 15.660085 162.01758 15.794922 C 161.7479 15.929759 161.31393 16.064382 160.7168 16.199219 C 160.13892 16.314794 159.32924 16.459451 158.28906 16.632812 C 157.01774 16.8447 156.01713 17.268636 155.28516 17.904297 C 154.57245 18.539958 154.21484 19.434096 154.21484 20.589844 C 154.21484 21.148455 154.32132 21.650713 154.5332 22.09375 C 154.76435 22.517524 155.05367 22.883207 155.40039 23.191406 C 155.76638 23.499606 156.18028 23.720632 156.64258 23.855469 C 157.10488 23.990306 157.57703 24.058594 158.05859 24.058594 C 159.04098 24.058594 159.86878 23.893868 160.54297 23.566406 C 161.21715 23.238944 161.9003 22.728605 162.59375 22.035156 C 162.65155 22.53598 162.84441 22.949882 163.17188 23.277344 C 163.49933 23.585543 163.97149 23.740234 164.58789 23.740234 C 164.97314 23.740234 165.32071 23.712087 165.62891 23.654297 C 165.95637 23.596507 166.22561 23.518187 166.4375 23.421875 L 166.4375 22.787109 C 166.3412 22.844899 166.23472 22.883079 166.11914 22.902344 L 165.83008 22.902344 C 165.54114 22.902344 165.32012 22.834054 165.16602 22.699219 C 165.03118 22.564382 164.92471 22.401609 164.84766 22.208984 C 164.77066 21.997097 164.72239 21.766037 164.70312 21.515625 L 164.70312 20.763672 C 164.70312 19.550137 164.72322 18.40487 164.76172 17.326172 C 164.80022 16.228212 164.81836 15.12921 164.81836 14.03125 C 164.81836 13.395589 164.70381 12.818915 164.47266 12.298828 C 164.24151 11.759479 163.92404 11.30544 163.51953 10.939453 C 163.11502 10.554204 162.6228 10.266843 162.04492 10.074219 C 161.46705 9.8623315 160.83212 9.7558564 160.13867 9.7558594 z M 174.35547 9.7558594 C 173.60423 9.7558594 172.89098 9.8522973 172.2168 10.044922 C 171.56187 10.237546 170.97516 10.52686 170.45508 10.912109 C 169.95425 11.297359 169.55847 11.787629 169.26953 12.384766 C 168.98059 12.962639 168.83594 13.65582 168.83594 14.464844 C 168.83594 15.524279 169.08707 16.410336 169.58789 17.123047 C 170.08871 17.816496 170.7819 18.356938 171.66797 18.742188 L 171.66797 18.798828 C 171.43682 18.837348 171.19572 18.923757 170.94531 19.058594 C 170.6949 19.193431 170.47387 19.368191 170.28125 19.580078 C 170.08863 19.791965 169.92585 20.031107 169.79102 20.300781 C 169.67544 20.570456 169.61719 20.869804 169.61719 21.197266 C 169.61719 21.755877 169.77188 22.238066 170.08008 22.642578 C 170.38828 23.04709 170.84036 23.336403 171.4375 23.509766 L 171.4375 23.566406 C 171.05225 23.662716 170.67653 23.807375 170.31055 24 C 169.94456 24.192625 169.61706 24.451835 169.32812 24.779297 C 169.0392 25.106759 168.79809 25.482476 168.60547 25.90625 C 168.43211 26.330024 168.3457 26.792145 168.3457 27.292969 C 168.3457 28.583554 168.88419 29.596151 169.96289 30.328125 C 171.04159 31.079361 172.51631 31.455078 174.38477 31.455078 C 175.11914 31.455078 175.78127 31.378168 176.38867 31.244141 C 176.40267 31.598869 176.41879 31.958072 176.42969 32.306641 C 176.45859 32.913408 176.47266 33.534261 176.47266 34.169922 L 176.47266 36.654297 C 176.47266 37.289958 176.45859 37.916804 176.42969 38.533203 C 176.41039 39.149602 176.38632 39.756379 176.35742 40.353516 C 176.68488 40.334256 177.00639 40.324219 177.32422 40.324219 L 178.29297 40.324219 C 178.62043 40.324219 178.94194 40.328221 179.25977 40.337891 C 179.5776 40.347491 179.90105 40.353516 180.22852 40.353516 C 180.79676 40.353516 181.38946 40.271156 182.00586 40.107422 C 182.63189 39.93406 183.20048 39.644746 183.71094 39.240234 C 184.23102 38.835723 184.65301 38.305314 184.98047 37.650391 C 185.31756 36.985836 185.48633 36.172107 185.48633 35.208984 C 185.48633 34.46738 185.39583 33.804302 185.21289 33.216797 C 185.03953 32.619661 184.76025 32.117402 184.375 31.712891 C 183.98975 31.298748 183.49349 30.981284 182.88672 30.759766 C 182.28958 30.538247 181.5663 30.427734 180.71875 30.427734 C 180.35276 30.427734 179.98708 30.441803 179.62109 30.470703 C 179.26474 30.489963 178.9031 30.5 178.53711 30.5 C 178.46551 30.5 178.3939 30.498447 178.32227 30.498047 C 178.82244 30.212781 179.25644 29.889114 179.61328 29.519531 C 180.17189 28.96092 180.57772 28.334074 180.82812 27.640625 C 181.0978 26.947176 181.23242 26.26403 181.23242 25.589844 C 181.23242 25.08902 181.13602 24.626899 180.94336 24.203125 C 180.77 23.779351 180.48068 23.403634 180.07617 23.076172 C 179.69092 22.74871 179.18058 22.487546 178.54492 22.294922 C 177.92852 22.102297 177.17709 21.995825 176.29102 21.976562 C 175.75167 21.957303 175.22321 21.949219 174.70312 21.949219 C 174.18305 21.929959 173.65263 21.909885 173.11328 21.890625 C 172.45836 21.871365 172.00627 21.746775 171.75586 21.515625 C 171.52471 21.284475 171.4082 20.918793 171.4082 20.417969 C 171.4082 20.03272 171.55286 19.713303 171.8418 19.462891 C 172.15 19.212479 172.47749 19.087891 172.82422 19.087891 C 173.09389 19.087891 173.3531 19.097918 173.60352 19.117188 C 173.87319 19.136447 174.14439 19.146484 174.41406 19.146484 C 176.05137 19.146484 177.35133 18.740664 178.31445 17.931641 C 179.29684 17.103355 179.78711 15.968121 179.78711 14.523438 C 179.78711 13.791464 179.60427 13.088249 179.23828 12.414062 C 178.87229 11.720615 178.39206 11.210274 177.79492 10.882812 L 177.85156 10.824219 C 178.37165 10.843479 178.89202 10.881669 179.41211 10.939453 C 179.95146 10.977973 180.49998 11.018113 181.05859 11.056641 L 181.00195 10.767578 L 181.00195 10.449219 L 181.00195 10.160156 C 181.02125 10.044581 181.03939 9.9381092 181.05859 9.8417969 C 180.57703 9.9381089 179.79745 9.9863281 178.71875 9.9863281 C 178.50686 9.9863281 178.22758 9.9762942 177.88086 9.9570312 C 177.53414 9.9377693 177.13835 9.9096177 176.69531 9.8710938 C 176.17523 9.8325688 175.74321 9.8044192 175.39648 9.7851562 C 175.06902 9.7658943 174.72146 9.7558594 174.35547 9.7558594 z M 191.08594 9.7558594 C 190.04576 9.7558594 189.14967 9.9869195 188.39844 10.449219 C 187.6472 10.892255 187.00224 11.527183 186.46289 12.355469 L 186.4043 12.355469 C 186.4043 11.58497 186.43243 10.81542 186.49023 10.044922 C 186.23982 10.083442 186.0188 10.121632 185.82617 10.160156 C 185.65281 10.179416 185.49004 10.189453 185.33594 10.189453 C 185.00848 10.189453 184.57451 10.141233 184.03516 10.044922 C 184.13146 10.873208 184.18972 11.769299 184.20898 12.732422 C 184.24748 13.676283 184.26563 14.580455 184.26562 15.447266 L 184.26562 18.453125 C 184.26562 19.319936 184.24748 20.234143 184.20898 21.197266 C 184.18968 22.141126 184.13148 22.999033 184.03516 23.769531 C 184.47819 23.731011 184.91216 23.710937 185.33594 23.710938 C 185.75971 23.710938 186.19173 23.731011 186.63477 23.769531 C 186.53847 22.999033 186.47212 22.141126 186.43359 21.197266 C 186.41429 20.234143 186.4043 19.319936 186.4043 18.453125 L 186.4043 15.996094 C 186.4043 14.493622 186.71174 13.328286 187.32812 12.5 C 187.96379 11.671714 188.95632 11.257813 190.30469 11.257812 C 191.28707 11.257812 192.05858 11.63353 192.61719 12.384766 C 193.1758 13.116739 193.45508 14.205706 193.45508 15.650391 L 193.45508 17.412109 C 193.45508 18.529332 193.42499 19.618299 193.36719 20.677734 C 193.32869 21.73717 193.29049 22.767883 193.25195 23.769531 C 193.6372 23.731011 194.03299 23.710938 194.4375 23.710938 C 194.86127 23.710938 195.26514 23.731011 195.65039 23.769531 C 195.63109 23.499857 195.6111 23.220578 195.5918 22.931641 L 195.5918 22.005859 L 195.5918 20.128906 C 195.5918 19.146521 195.61189 18.22228 195.65039 17.355469 C 195.68889 16.469395 195.70898 15.611489 195.70898 14.783203 C 195.70898 13.781555 195.56433 12.961833 195.27539 12.326172 C 195.00572 11.671248 194.64811 11.160909 194.20508 10.794922 C 193.76204 10.409673 193.26174 10.140428 192.70312 9.9863281 C 192.16379 9.8322284 191.62529 9.7558594 191.08594 9.7558594 z M 205.95508 9.7558594 C 205.12679 9.7558594 204.28895 9.8904821 203.44141 10.160156 C 202.61312 10.410568 201.86169 10.82447 201.1875 11.402344 C 200.51331 11.960955 199.96479 12.702355 199.54102 13.626953 C 199.1365 14.532289 198.93359 15.639371 198.93359 16.949219 C 198.93359 18.259066 199.1365 19.376183 199.54102 20.300781 C 199.96479 21.206117 200.51331 21.94947 201.1875 22.527344 C 201.86169 23.085955 202.61312 23.479788 203.44141 23.710938 C 204.28895 23.942086 205.12679 24.058594 205.95508 24.058594 C 206.80263 24.058594 207.64046 23.942086 208.46875 23.710938 C 209.29704 23.479788 210.04847 23.085955 210.72266 22.527344 C 211.39684 21.94947 211.93533 21.206117 212.33984 20.300781 C 212.76362 19.376183 212.97656 18.259066 212.97656 16.949219 C 212.97656 15.639371 212.76362 14.532289 212.33984 13.626953 C 211.93533 12.702355 211.39684 11.960955 210.72266 11.402344 C 210.04847 10.82447 209.29704 10.410568 208.46875 10.160156 C 207.64046 9.8904821 206.80263 9.7558594 205.95508 9.7558594 z M 223.25195 9.7558594 C 222.21178 9.7558594 221.31569 9.9869195 220.56445 10.449219 C 219.81322 10.892255 219.16826 11.527183 218.62891 12.355469 L 218.57031 12.355469 C 218.57031 11.58497 218.6004 10.81542 218.6582 10.044922 C 218.40779 10.083442 218.18677 10.121632 217.99414 10.160156 C 217.82078 10.179416 217.65605 10.189453 217.50195 10.189453 C 217.17449 10.189453 216.74052 10.141233 216.20117 10.044922 C 216.29747 10.873208 216.35574 11.769299 216.375 12.732422 C 216.4135 13.676283 216.43359 14.580455 216.43359 15.447266 L 216.43359 18.453125 C 216.43359 19.319936 216.4135 20.234143 216.375 21.197266 C 216.3557 22.141126 216.2975 22.999033 216.20117 23.769531 C 216.64421 23.731011 217.07818 23.710937 217.50195 23.710938 C 217.92573 23.710938 218.3597 23.731011 218.80273 23.769531 C 218.70643 22.999033 218.63813 22.141126 218.59961 21.197266 C 218.58031 20.234143 218.57031 19.319936 218.57031 18.453125 L 218.57031 15.996094 C 218.57031 14.493622 218.87969 13.328286 219.49609 12.5 C 220.13175 11.671714 221.12428 11.257813 222.47266 11.257812 C 223.45504 11.257812 224.22459 11.63353 224.7832 12.384766 C 225.34181 13.116739 225.62109 14.205706 225.62109 15.650391 L 225.62109 17.412109 C 225.62109 18.529332 225.59286 19.618299 225.53516 20.677734 C 225.49666 21.73717 225.45646 22.767883 225.41797 23.769531 C 225.80322 23.731011 226.199 23.710938 226.60352 23.710938 C 227.02729 23.710938 227.43116 23.731011 227.81641 23.769531 C 227.79711 23.499857 227.77897 23.220578 227.75977 22.931641 L 227.75977 22.005859 L 227.75977 20.128906 C 227.75977 19.146521 227.77791 18.22228 227.81641 17.355469 C 227.85491 16.469395 227.875 15.611489 227.875 14.783203 C 227.875 13.781555 227.73034 12.961833 227.44141 12.326172 C 227.17173 11.671248 226.81608 11.160909 226.37305 10.794922 C 225.93001 10.409673 225.42775 10.140428 224.86914 9.9863281 C 224.32979 9.8322284 223.7913 9.7558594 223.25195 9.7558594 z M 174.38477 10.59375 C 175.32863 10.59375 176.09009 10.911214 176.66797 11.546875 C 177.24584 12.182536 177.5332 13.106778 177.5332 14.320312 C 177.5332 14.859661 177.4669 15.380035 177.33203 15.880859 C 177.21646 16.362421 177.02358 16.796391 176.75391 17.181641 C 176.50349 17.547627 176.176 17.845022 175.77148 18.076172 C 175.38624 18.288059 174.91408 18.394531 174.35547 18.394531 C 173.23825 18.394531 172.41044 18.048917 171.87109 17.355469 C 171.35101 16.642758 171.08984 15.678379 171.08984 14.464844 C 171.08984 13.289834 171.37916 12.355558 171.95703 11.662109 C 172.53491 10.949398 173.34459 10.59375 174.38477 10.59375 z M 205.95508 10.679688 C 206.80263 10.679688 207.51588 10.852494 208.09375 11.199219 C 208.67162 11.545943 209.13374 12.018098 209.48047 12.615234 C 209.82719 13.193108 210.0683 13.858139 210.20312 14.609375 C 210.35722 15.360611 210.43359 16.140195 210.43359 16.949219 C 210.43359 17.758242 210.35719 18.53978 210.20312 19.291016 C 210.0683 20.042252 209.82719 20.715364 209.48047 21.3125 C 209.13374 21.890374 208.67162 22.352494 208.09375 22.699219 C 207.51588 23.045943 206.80263 23.220703 205.95508 23.220703 C 205.10753 23.220703 204.39428 23.045943 203.81641 22.699219 C 203.23853 22.352494 202.77641 21.890374 202.42969 21.3125 C 202.08296 20.715364 201.83183 20.042252 201.67773 19.291016 C 201.5429 18.53978 201.47656 17.758242 201.47656 16.949219 C 201.47656 16.140195 201.54286 15.360611 201.67773 14.609375 C 201.83183 13.858139 202.08296 13.193108 202.42969 12.615234 C 202.77641 12.018098 203.23853 11.545943 203.81641 11.199219 C 204.39428 10.852494 205.10753 10.679687 205.95508 10.679688 z M 37.455078 16.574219 L 37.339844 20.908203 C 37.012382 21.447552 36.540227 21.919707 35.923828 22.324219 C 35.326692 22.72873 34.66166 22.931641 33.929688 22.931641 C 33.294026 22.931641 32.717352 22.70058 32.197266 22.238281 C 31.677179 21.775982 31.416016 21.090883 31.416016 20.185547 C 31.416016 19.646198 31.512456 19.204146 31.705078 18.857422 C 31.916965 18.510698 32.18621 18.221384 32.513672 17.990234 C 32.860396 17.759085 33.246148 17.576243 33.669922 17.441406 C 34.112959 17.306569 34.556963 17.200097 35 17.123047 C 35.443037 17.026737 35.875054 16.940331 36.298828 16.863281 C 36.741865 16.786231 37.127616 16.689794 37.455078 16.574219 z M 162.62305 16.574219 L 162.50781 20.908203 C 162.18035 21.447552 161.7082 21.919707 161.0918 22.324219 C 160.49466 22.72873 159.82963 22.931641 159.09766 22.931641 C 158.462 22.931641 157.88532 22.70058 157.36523 22.238281 C 156.84515 21.775982 156.58398 21.090883 156.58398 20.185547 C 156.58398 19.646198 156.68038 19.204146 156.87305 18.857422 C 157.08493 18.510698 157.35418 18.221384 157.68164 17.990234 C 158.02836 17.759085 158.41412 17.576243 158.83789 17.441406 C 159.28093 17.306569 159.72493 17.200097 160.16797 17.123047 C 160.61101 17.026737 161.04302 16.940331 161.4668 16.863281 C 161.90983 16.786231 162.29559 16.689794 162.62305 16.574219 z M 118.53125 20.763672 C 118.08821 20.763672 117.70246 20.928398 117.375 21.255859 C 117.04754 21.583321 116.88281 21.96712 116.88281 22.410156 C 116.88281 22.853193 117.04754 23.22891 117.375 23.537109 C 117.70246 23.826046 118.08821 23.970703 118.53125 23.970703 C 118.97429 23.970703 119.35809 23.826046 119.68555 23.537109 C 120.01301 23.22891 120.17773 22.853193 120.17773 22.410156 C 120.17773 21.96712 120.01301 21.583321 119.68555 21.255859 C 119.35809 20.928398 118.97429 20.763672 118.53125 20.763672 z M 174.73047 23.710938 C 176.29073 23.710938 177.40785 23.941998 178.08203 24.404297 C 178.75622 24.866596 179.09375 25.676284 179.09375 26.832031 C 179.09375 27.486955 178.95913 28.045514 178.68945 28.507812 C 178.41978 28.989374 178.06413 29.383207 177.62109 29.691406 C 177.19732 29.999606 176.7051 30.230666 176.14648 30.384766 C 175.58787 30.538865 175.01928 30.617188 174.44141 30.617188 C 173.84427 30.617188 173.28571 30.548898 172.76562 30.414062 C 172.24555 30.279226 171.79345 30.068234 171.4082 29.779297 C 171.04222 29.49036 170.74482 29.114643 170.51367 28.652344 C 170.30178 28.190045 170.19531 27.631486 170.19531 26.976562 C 170.19531 25.743766 170.58915 24.885858 171.37891 24.404297 C 172.16867 23.941998 173.28578 23.710937 174.73047 23.710938 z M 119.66016 28.986328 C 119.37016 28.986328 119.08469 29.057265 118.80469 29.197266 C 118.53469 29.337265 118.30891 29.495781 118.12891 29.675781 C 117.9289 29.875781 117.74984 30.125781 117.58984 30.425781 C 117.42984 30.715781 117.28992 31.027422 117.16992 31.357422 C 117.05991 31.687422 116.97406 32.021328 116.91406 32.361328 C 116.85406 32.701328 116.82422 33.016641 116.82422 33.306641 L 116.28516 33.306641 C 116.10516 33.296648 115.92414 33.291016 115.74414 33.291016 C 115.75406 33.341014 115.75977 33.391405 115.75977 33.441406 C 115.76969 33.491405 115.77344 33.541796 115.77344 33.591797 C 115.77344 33.641795 115.76969 33.692187 115.75977 33.742188 C 115.75977 33.792185 115.75406 33.840624 115.74414 33.890625 C 115.92414 33.880609 116.10516 33.87132 116.28516 33.861328 C 116.46516 33.851336 116.64422 33.845703 116.82422 33.845703 C 116.82422 34.955703 116.81852 36.047187 116.80859 37.117188 C 116.79858 38.177186 116.75945 39.251796 116.68945 40.341797 C 116.91945 40.321718 117.13961 40.310547 117.34961 40.310547 L 117.66406 40.310547 C 117.77405 40.310547 117.88413 40.321718 117.99414 40.341797 C 117.96407 39.251796 117.94352 38.171563 117.93359 37.101562 L 117.93359 33.845703 C 118.19359 33.845703 118.44922 33.851336 118.69922 33.861328 C 118.95922 33.871344 119.22047 33.880633 119.48047 33.890625 C 119.47031 33.840627 119.45914 33.792187 119.44922 33.742188 L 119.44922 33.591797 L 119.44922 33.441406 C 119.45938 33.391408 119.47055 33.341016 119.48047 33.291016 C 119.22047 33.291016 118.95922 33.296648 118.69922 33.306641 L 117.93359 33.306641 C 117.88359 32.99664 117.83882 32.672031 117.79883 32.332031 C 117.76883 31.992031 117.75391 31.730781 117.75391 31.550781 C 117.75391 31.350781 117.77446 31.162422 117.81445 30.982422 C 117.86446 30.802421 117.93907 30.645624 118.03906 30.515625 C 118.13906 30.375627 118.26406 30.267501 118.41406 30.1875 C 118.57407 30.0975 118.76438 30.050781 118.98438 30.050781 C 119.29436 30.050781 119.56859 30.127344 119.80859 30.277344 L 119.90039 30.232422 C 119.90039 30.032423 119.90414 29.83086 119.91406 29.630859 C 119.93414 29.43086 119.94906 29.231251 119.95898 29.03125 C 119.86898 29.00125 119.77016 28.986328 119.66016 28.986328 z M 123.84961 28.986328 C 123.55961 28.986328 123.27414 29.057265 122.99414 29.197266 C 122.72414 29.337265 122.49836 29.495781 122.31836 29.675781 C 122.11835 29.875781 121.93929 30.125781 121.7793 30.425781 C 121.6193 30.715781 121.47937 31.027422 121.35938 31.357422 C 121.24937 31.687422 121.16352 32.021328 121.10352 32.361328 C 121.04352 32.701328 121.01367 33.016641 121.01367 33.306641 L 120.47461 33.306641 C 120.29461 33.296648 120.11359 33.291016 119.93359 33.291016 C 119.94352 33.341014 119.94922 33.391405 119.94922 33.441406 C 119.95914 33.491405 119.96289 33.541796 119.96289 33.591797 C 119.96289 33.641795 119.95914 33.692187 119.94922 33.742188 C 119.94922 33.792185 119.94352 33.840624 119.93359 33.890625 C 120.11359 33.880609 120.29461 33.87132 120.47461 33.861328 C 120.65461 33.851336 120.83367 33.845703 121.01367 33.845703 C 121.01367 34.955703 121.00797 36.047187 120.99805 37.117188 C 120.98803 38.177186 120.9489 39.251796 120.87891 40.341797 C 121.1089 40.321718 121.32906 40.310547 121.53906 40.310547 L 121.85352 40.310547 C 121.9635 40.310547 122.07359 40.321718 122.18359 40.341797 C 122.15352 39.251796 122.13297 38.171563 122.12305 37.101562 L 122.12305 33.845703 C 122.38305 33.845703 122.63867 33.851336 122.88867 33.861328 C 123.14867 33.871344 123.40992 33.880633 123.66992 33.890625 C 123.65976 33.840627 123.64859 33.792187 123.63867 33.742188 L 123.63867 33.591797 L 123.63867 33.441406 C 123.64883 33.391408 123.66 33.341016 123.66992 33.291016 C 123.40992 33.291016 123.14867 33.296648 122.88867 33.306641 L 122.12305 33.306641 C 122.07304 32.99664 122.02827 32.672031 121.98828 32.332031 C 121.95828 31.992031 121.94336 31.730781 121.94336 31.550781 C 121.94336 31.350781 121.96391 31.162422 122.00391 30.982422 C 122.05391 30.802421 122.12852 30.645624 122.22852 30.515625 C 122.32852 30.375627 122.45352 30.267501 122.60352 30.1875 C 122.76352 30.0975 122.95384 30.050781 123.17383 30.050781 C 123.48383 30.050781 123.75805 30.127344 123.99805 30.277344 L 124.08984 30.232422 C 124.08984 30.032423 124.09359 29.83086 124.10352 29.630859 C 124.12359 29.43086 124.13852 29.231251 124.14844 29.03125 C 124.05844 29.00125 123.95962 28.986328 123.84961 28.986328 z M 125.95312 29.841797 C 125.74313 29.841797 125.56406 29.916406 125.41406 30.066406 C 125.26406 30.216406 125.1875 30.397422 125.1875 30.607422 C 125.1875 30.817422 125.26406 30.996484 125.41406 31.146484 C 125.56406 31.296484 125.74313 31.371094 125.95312 31.371094 C 126.16313 31.371094 126.34414 31.296484 126.49414 31.146484 C 126.64414 30.996484 126.71875 30.817422 126.71875 30.607422 C 126.71875 30.397422 126.64414 30.216406 126.49414 30.066406 C 126.34414 29.916406 126.16313 29.841797 125.95312 29.841797 z M 137.61328 29.841797 C 137.40328 29.841797 137.22422 29.916406 137.07422 30.066406 C 136.92422 30.216406 136.84766 30.397422 136.84766 30.607422 C 136.84766 30.817422 136.92422 30.996484 137.07422 31.146484 C 137.22422 31.296484 137.40328 31.371094 137.61328 31.371094 C 137.82328 31.371094 138.0043 31.296484 138.1543 31.146484 C 138.3043 30.996484 138.37891 30.817422 138.37891 30.607422 C 138.37891 30.397422 138.3043 30.216406 138.1543 30.066406 C 138.0043 29.916406 137.82328 29.841797 137.61328 29.841797 z M 109.33984 30.037109 C 109.36977 30.67711 109.39398 31.317031 109.41406 31.957031 C 109.44406 32.597031 109.45898 33.24625 109.45898 33.90625 L 109.45898 36.486328 C 109.45898 37.146328 109.44406 37.7975 109.41406 38.4375 C 109.39405 39.067499 109.36984 39.701795 109.33984 40.341797 C 109.79984 40.321718 110.25508 40.3125 110.70508 40.3125 L 112.07031 40.3125 L 113.41992 40.3125 C 113.86992 40.3125 114.31953 40.321718 114.76953 40.341797 C 114.73953 40.241788 114.72461 40.111164 114.72461 39.951172 L 114.72461 39.726562 C 114.73453 39.636563 114.74945 39.55632 114.76953 39.486328 C 114.52953 39.536336 114.24406 39.577422 113.91406 39.607422 C 113.59406 39.627335 113.24891 39.645937 112.87891 39.666016 C 112.51891 39.675937 112.14953 39.681641 111.76953 39.681641 L 110.7207 39.681641 C 110.71055 39.491641 110.69937 39.211797 110.68945 38.841797 L 110.68945 37.431641 L 110.68945 36.53125 L 110.68945 35.947266 L 110.68945 35.556641 C 110.69937 35.44664 110.70508 35.345859 110.70508 35.255859 C 110.88508 35.255859 111.12383 35.261492 111.42383 35.271484 C 111.73383 35.271484 112.06039 35.277117 112.40039 35.287109 C 112.75039 35.287109 113.09359 35.296398 113.43359 35.316406 C 113.78359 35.336407 114.08961 35.360625 114.34961 35.390625 C 114.31961 35.240625 114.30469 35.091406 114.30469 34.941406 C 114.30469 34.781406 114.31961 34.626563 114.34961 34.476562 C 114.12961 34.496554 113.89453 34.517102 113.64453 34.537109 C 113.40453 34.547102 113.13961 34.562023 112.84961 34.582031 C 112.55961 34.592047 112.23867 34.601336 111.88867 34.611328 C 111.53867 34.62132 111.14508 34.626953 110.70508 34.626953 C 110.70508 34.436953 110.69937 34.157109 110.68945 33.787109 L 110.68945 32.646484 C 110.68945 32.276484 110.69516 31.94625 110.70508 31.65625 C 110.72516 31.36625 110.74008 31.062187 110.75 30.742188 C 111.24 30.742187 111.65976 30.751477 112.00977 30.771484 C 112.35977 30.781477 112.67875 30.796398 112.96875 30.816406 C 113.26875 30.836398 113.54859 30.856945 113.80859 30.876953 C 114.07859 30.896944 114.37531 30.917492 114.69531 30.9375 C 114.66531 30.7875 114.65039 30.636328 114.65039 30.486328 C 114.65039 30.336328 114.66531 30.187109 114.69531 30.037109 C 114.24531 30.057101 113.79937 30.075695 113.35938 30.095703 C 112.91937 30.105695 112.47539 30.111328 112.02539 30.111328 C 111.57539 30.111328 111.12383 30.105695 110.67383 30.095703 C 110.23383 30.075712 109.78984 30.057117 109.33984 30.037109 z M 201.10547 30.240234 C 200.90321 30.240234 200.72845 30.312564 200.58398 30.457031 C 200.43952 30.6015 200.36719 30.774308 200.36719 30.976562 C 200.36719 31.178818 200.43949 31.351625 200.58398 31.496094 C 200.72845 31.640562 200.90321 31.712891 201.10547 31.712891 C 201.30772 31.712891 201.48053 31.640561 201.625 31.496094 C 201.76947 31.351625 201.8418 31.178818 201.8418 30.976562 C 201.8418 30.774308 201.7695 30.6015 201.625 30.457031 C 201.48053 30.312563 201.30772 30.240234 201.10547 30.240234 z M 179.96875 31.035156 C 180.56589 31.035156 181.11441 31.097446 181.61523 31.222656 C 182.11606 31.338231 182.54404 31.555216 182.90039 31.873047 C 183.26638 32.181246 183.55165 32.605182 183.75391 33.144531 C 183.96579 33.68388 184.07031 34.371067 184.07031 35.208984 C 184.07031 36.162476 183.93569 36.944014 183.66602 37.550781 C 183.40597 38.147918 183.0644 38.620073 182.64062 38.966797 C 182.22649 39.313521 181.75433 39.548622 181.22461 39.673828 C 180.69489 39.799034 180.16644 39.861328 179.63672 39.861328 C 179.27073 39.861328 178.91313 39.851301 178.56641 39.832031 C 178.21968 39.803141 177.9464 39.764951 177.74414 39.716797 C 177.68634 38.715149 177.65625 37.69447 177.65625 36.654297 L 177.65625 34.169922 C 177.65625 33.649835 177.66228 33.139496 177.67188 32.638672 C 177.69117 32.128217 177.71524 31.641986 177.74414 31.179688 C 178.04271 31.141168 178.37829 31.107018 178.75391 31.078125 C 179.12952 31.049235 179.53534 31.035156 179.96875 31.035156 z M 132.48438 33.066406 C 132.00437 33.066406 131.53422 33.141016 131.07422 33.291016 C 130.61422 33.431016 130.20375 33.656797 129.84375 33.966797 C 129.49374 34.266797 129.20827 34.651094 128.98828 35.121094 C 128.76829 35.591094 128.6582 36.150781 128.6582 36.800781 C 128.6582 37.480781 128.76266 38.057344 128.97266 38.527344 C 129.19266 38.997343 129.47813 39.381641 129.82812 39.681641 C 130.17813 39.971649 130.56805 40.182508 130.99805 40.3125 C 131.43805 40.4325 131.87274 40.492188 132.30273 40.492188 C 132.78273 40.492188 133.24359 40.406336 133.68359 40.236328 C 134.13359 40.06633 134.50859 39.861094 134.80859 39.621094 C 134.81859 39.371092 134.84843 39.126719 134.89844 38.886719 L 134.82422 38.841797 C 134.69422 38.991806 134.53937 39.131727 134.35938 39.261719 C 134.18938 39.391734 134.00274 39.50743 133.80273 39.607422 C 133.60274 39.697422 133.39945 39.772031 133.18945 39.832031 C 132.97946 39.882039 132.77423 39.90625 132.57422 39.90625 C 131.72422 39.90625 131.07867 39.646952 130.63867 39.126953 C 130.19867 38.596952 129.97852 37.81711 129.97852 36.787109 C 129.97852 36.327109 130.02328 35.901719 130.11328 35.511719 C 130.21327 35.111719 130.36445 34.766563 130.56445 34.476562 C 130.77445 34.186563 131.03937 33.96078 131.35938 33.800781 C 131.68937 33.63078 132.0793 33.546875 132.5293 33.546875 C 132.76929 33.546875 132.98945 33.586015 133.18945 33.666016 C 133.38946 33.736015 133.56852 33.831172 133.72852 33.951172 C 133.89851 34.061171 134.04406 34.186171 134.16406 34.326172 C 134.28406 34.456173 134.37923 34.586798 134.44922 34.716797 L 134.56836 34.716797 C 134.60835 34.536796 134.65313 34.36703 134.70312 34.207031 C 134.76313 34.037031 134.82845 33.876563 134.89844 33.726562 C 134.70844 33.556563 134.39312 33.407343 133.95312 33.277344 C 133.52313 33.137343 133.03436 33.066406 132.48438 33.066406 z M 143.64844 33.066406 C 142.52844 33.066406 141.67399 33.417188 141.08398 34.117188 C 140.50399 34.817187 140.21289 35.781719 140.21289 37.011719 L 140.21484 37.011719 C 140.21484 37.511719 140.29874 37.97625 140.46875 38.40625 C 140.64875 38.836247 140.89875 39.211249 141.21875 39.53125 C 141.54875 39.841242 141.935 40.081945 142.375 40.251953 C 142.825 40.411945 143.31937 40.492187 143.85938 40.492188 C 144.33937 40.492188 144.79828 40.406336 145.23828 40.236328 C 145.68828 40.06633 146.06328 39.861094 146.36328 39.621094 L 146.45508 38.886719 L 146.37891 38.841797 C 146.2489 38.991805 146.09406 39.131727 145.91406 39.261719 C 145.74407 39.391734 145.55937 39.50743 145.35938 39.607422 C 145.15937 39.697422 144.95414 39.772031 144.74414 39.832031 C 144.53415 39.882039 144.32891 39.90625 144.12891 39.90625 C 143.70891 39.90625 143.33953 39.837273 143.01953 39.697266 C 142.69952 39.547266 142.42898 39.351328 142.20898 39.111328 C 141.98899 38.861329 141.81922 38.566562 141.69922 38.226562 C 141.58921 37.886564 141.5332 37.520859 141.5332 37.130859 L 141.5332 36.9375 C 141.5332 36.837501 141.53891 36.760937 141.54883 36.710938 C 141.87883 36.700922 142.20344 36.691633 142.52344 36.681641 C 142.85344 36.671648 143.18367 36.666016 143.51367 36.666016 C 144.05367 36.666016 144.58914 36.671648 145.11914 36.681641 C 145.64914 36.691656 146.18461 36.700945 146.72461 36.710938 C 146.73453 36.610938 146.73828 36.515781 146.73828 36.425781 C 146.7482 36.32578 146.75391 36.226952 146.75391 36.126953 C 146.75391 35.706953 146.68859 35.311406 146.55859 34.941406 C 146.43859 34.571406 146.24828 34.252422 145.98828 33.982422 C 145.72828 33.702421 145.40367 33.482265 145.01367 33.322266 C 144.63367 33.152265 144.17844 33.066406 143.64844 33.066406 z M 151.95898 33.066406 C 151.41898 33.066406 150.95445 33.185781 150.56445 33.425781 C 150.17445 33.655781 149.83859 33.986016 149.55859 34.416016 L 149.5293 34.416016 C 149.5293 34.016016 149.54422 33.616797 149.57422 33.216797 C 149.4442 33.236788 149.32851 33.257336 149.22852 33.277344 C 149.13852 33.287336 149.05462 33.291016 148.97461 33.291016 C 148.80461 33.291016 148.57883 33.266798 148.29883 33.216797 C 148.34891 33.646797 148.37875 34.111328 148.38867 34.611328 C 148.40875 35.101328 148.41992 35.571484 148.41992 36.021484 L 148.41992 37.582031 C 148.41992 38.032031 148.40875 38.50586 148.38867 39.005859 C 148.37868 39.495859 148.34884 39.941795 148.29883 40.341797 C 148.52884 40.321718 148.75462 40.310547 148.97461 40.310547 C 149.1946 40.310547 149.41843 40.321718 149.64844 40.341797 C 149.59852 39.941795 149.565 39.495859 149.54492 39.005859 C 149.535 38.50586 149.5293 38.032031 149.5293 37.582031 L 149.5293 36.306641 C 149.5293 35.526641 149.68976 34.922186 150.00977 34.492188 C 150.33977 34.062188 150.85469 33.845703 151.55469 33.845703 C 152.06469 33.845703 152.46391 34.041641 152.75391 34.431641 C 153.0439 34.811641 153.18945 35.376953 153.18945 36.126953 L 153.18945 37.041016 C 153.18945 37.621016 153.17453 38.186328 153.14453 38.736328 C 153.12462 39.286326 153.10406 39.821795 153.08398 40.341797 C 153.28399 40.321718 153.48922 40.310547 153.69922 40.310547 C 153.91921 40.310547 154.13007 40.321718 154.33008 40.341797 C 154.31992 40.201796 154.30875 40.05625 154.29883 39.90625 L 154.29883 39.425781 L 154.29883 38.451172 C 154.29883 37.941172 154.31 37.461719 154.33008 37.011719 C 154.35016 36.551719 154.35938 36.105781 154.35938 35.675781 C 154.35937 35.155781 154.28477 34.732344 154.13477 34.402344 C 153.99477 34.062343 153.81009 33.797421 153.58008 33.607422 C 153.35008 33.407423 153.08883 33.267501 152.79883 33.1875 C 152.51883 33.107499 152.23898 33.066406 151.95898 33.066406 z M 159.96484 33.066406 C 159.48484 33.066406 159.01469 33.141016 158.55469 33.291016 C 158.09469 33.431016 157.68422 33.656797 157.32422 33.966797 C 156.97421 34.266797 156.68874 34.651094 156.46875 35.121094 C 156.24876 35.591094 156.13867 36.150781 156.13867 36.800781 C 156.13867 37.480781 156.24313 38.057344 156.45312 38.527344 C 156.67312 38.997343 156.95859 39.381641 157.30859 39.681641 C 157.65859 39.971649 158.04851 40.182508 158.47852 40.3125 C 158.91851 40.4325 159.3532 40.492188 159.7832 40.492188 C 160.2632 40.492188 160.72406 40.406336 161.16406 40.236328 C 161.61406 40.06633 161.98906 39.861094 162.28906 39.621094 C 162.29905 39.371092 162.3289 39.126719 162.37891 38.886719 L 162.30469 38.841797 C 162.17469 38.991806 162.01984 39.131727 161.83984 39.261719 C 161.66985 39.391734 161.48321 39.50743 161.2832 39.607422 C 161.0832 39.697422 160.87992 39.772031 160.66992 39.832031 C 160.45993 39.882039 160.2547 39.90625 160.05469 39.90625 C 159.20469 39.90625 158.55914 39.646952 158.11914 39.126953 C 157.67914 38.596952 157.45898 37.81711 157.45898 36.787109 C 157.45898 36.327109 157.50375 35.901719 157.59375 35.511719 C 157.69374 35.111719 157.84491 34.766563 158.04492 34.476562 C 158.25492 34.186563 158.51984 33.96078 158.83984 33.800781 C 159.16984 33.63078 159.55977 33.546875 160.00977 33.546875 C 160.24976 33.546875 160.46991 33.586015 160.66992 33.666016 C 160.86993 33.736015 161.04899 33.831172 161.20898 33.951172 C 161.37899 34.061171 161.52453 34.186171 161.64453 34.326172 C 161.76453 34.456173 161.8597 34.586798 161.92969 34.716797 L 162.04883 34.716797 C 162.08882 34.536796 162.13359 34.36703 162.18359 34.207031 C 162.24359 34.037031 162.30891 33.876563 162.37891 33.726562 C 162.18891 33.556563 161.87359 33.407343 161.43359 33.277344 C 161.00359 33.137343 160.51484 33.066406 159.96484 33.066406 z M 125.27734 33.216797 C 125.32742 33.646797 125.35922 34.111328 125.36914 34.611328 C 125.38922 35.101328 125.39844 35.571484 125.39844 36.021484 L 125.39844 37.582031 C 125.39844 38.032031 125.38922 38.50586 125.36914 39.005859 C 125.35915 39.495859 125.32735 39.941795 125.27734 40.341797 C 125.50735 40.321718 125.73314 40.310547 125.95312 40.310547 C 126.17312 40.310547 126.3989 40.321718 126.62891 40.341797 C 126.57899 39.941795 126.54352 39.495859 126.52344 39.005859 C 126.51352 38.50586 126.50781 38.032031 126.50781 37.582031 L 126.50781 36.021484 C 126.50781 35.571484 126.51352 35.101328 126.52344 34.611328 C 126.54342 34.111328 126.5789 33.646797 126.62891 33.216797 C 126.34891 33.266798 126.12313 33.291016 125.95312 33.291016 C 125.78313 33.291016 125.55734 33.266798 125.27734 33.216797 z M 136.9375 33.216797 C 136.98758 33.646797 137.01938 34.111328 137.0293 34.611328 C 137.04938 35.101328 137.05859 35.571484 137.05859 36.021484 L 137.05859 37.582031 C 137.05859 38.032031 137.04938 38.50586 137.0293 39.005859 C 137.0193 39.495859 136.98751 39.941795 136.9375 40.341797 C 137.16751 40.321718 137.39329 40.310547 137.61328 40.310547 C 137.83327 40.310547 138.05905 40.321718 138.28906 40.341797 C 138.23915 39.941795 138.20367 39.495859 138.18359 39.005859 C 138.17367 38.50586 138.16797 38.032031 138.16797 37.582031 L 138.16797 36.021484 C 138.16797 35.571484 138.17367 35.101328 138.18359 34.611328 C 138.20358 34.111328 138.23905 33.646797 138.28906 33.216797 C 138.00907 33.266798 137.78329 33.291016 137.61328 33.291016 C 137.44328 33.291016 137.2175 33.266798 136.9375 33.216797 z M 163.33984 33.216797 C 163.40984 33.376797 163.51429 33.621172 163.6543 33.951172 C 163.7943 34.281172 163.95477 34.667422 164.13477 35.107422 C 164.32477 35.537422 164.52437 36.001953 164.73438 36.501953 C 164.94436 36.991953 165.1496 37.477031 165.34961 37.957031 C 165.5496 38.427031 165.73429 38.87664 165.9043 39.306641 C 166.08429 39.73664 166.22984 40.087422 166.33984 40.357422 C 165.78984 41.667423 165.11812 42.977111 164.32812 44.287109 C 164.52812 44.237102 164.69984 44.210938 164.83984 44.210938 C 164.97984 44.210937 165.1496 44.237102 165.34961 44.287109 C 165.42962 44.03711 165.54899 43.695624 165.70898 43.265625 C 165.87899 42.845625 166.07493 42.371798 166.29492 41.841797 C 166.51492 41.321798 166.75367 40.771408 167.01367 40.191406 L 167.79492 38.421875 C 168.06492 37.821875 168.32422 37.241641 168.57422 36.681641 C 168.83422 36.111641 169.0693 35.596719 169.2793 35.136719 C 169.4993 34.666719 169.68398 34.2675 169.83398 33.9375 C 169.994 33.597501 170.1097 33.356798 170.17969 33.216797 C 169.97968 33.266798 169.81359 33.291016 169.68359 33.291016 C 169.5536 33.291016 169.38946 33.266798 169.18945 33.216797 C 168.88945 34.176797 168.5443 35.15625 168.1543 36.15625 C 167.7743 37.15625 167.37313 38.096565 166.95312 38.976562 C 166.53313 37.976565 166.13391 37.006406 165.75391 36.066406 C 165.37391 35.126406 165.02875 34.176797 164.71875 33.216797 C 164.58876 33.236788 164.46937 33.257336 164.35938 33.277344 C 164.24939 33.287336 164.1393 33.291016 164.0293 33.291016 C 163.91931 33.291016 163.80923 33.287336 163.69922 33.277344 C 163.58921 33.257352 163.46984 33.236805 163.33984 33.216797 z M 190.09961 33.345703 C 189.02091 33.345703 188.1991 33.683236 187.63086 34.357422 C 187.07225 35.031608 186.79297 35.961843 186.79297 37.146484 C 186.79297 37.628046 186.87337 38.074138 187.03711 38.488281 C 187.21047 38.902424 187.45157 39.264066 187.75977 39.572266 C 188.0776 39.870834 188.44927 40.101894 188.87305 40.265625 C 189.30645 40.419725 189.78265 40.498047 190.30273 40.498047 C 190.76503 40.498047 191.20904 40.415687 191.63281 40.251953 C 192.06622 40.088222 192.42591 39.891306 192.71484 39.660156 L 192.80273 38.951172 L 192.73047 38.908203 C 192.60526 39.052672 192.45461 39.187294 192.28125 39.3125 C 192.11752 39.437706 191.94067 39.548219 191.74805 39.644531 C 191.55542 39.731211 191.35655 39.803541 191.1543 39.861328 C 190.95204 39.909488 190.75512 39.933594 190.5625 39.933594 C 190.15799 39.933594 189.80234 39.867254 189.49414 39.732422 C 189.18594 39.587953 188.92478 39.399118 188.71289 39.167969 C 188.501 38.927188 188.33823 38.643868 188.22266 38.316406 C 188.11671 37.988944 188.06445 37.637337 188.06445 37.261719 L 188.06445 37.074219 C 188.06445 36.977909 188.06843 36.905578 188.07812 36.857422 C 188.39596 36.847822 188.70938 36.837755 189.01758 36.828125 C 189.33541 36.818525 189.65287 36.8125 189.9707 36.8125 C 190.49079 36.8125 191.00518 36.818495 191.51562 36.828125 C 192.02608 36.837725 192.54241 36.847792 193.0625 36.857422 C 193.0725 36.761112 193.07617 36.668712 193.07617 36.582031 C 193.08617 36.485721 193.0918 36.389281 193.0918 36.292969 C 193.0918 35.888457 193.0275 35.508699 192.90234 35.152344 C 192.78677 34.795988 192.60393 34.486606 192.35352 34.226562 C 192.1031 33.956889 191.79163 33.745897 191.41602 33.591797 C 191.05003 33.428066 190.61006 33.345706 190.09961 33.345703 z M 196.5293 33.345703 C 196.14405 33.345703 195.80247 33.403953 195.50391 33.519531 C 195.20534 33.625475 194.95616 33.774172 194.75391 33.966797 C 194.55165 34.159421 194.39696 34.390482 194.29102 34.660156 C 194.18507 34.920199 194.13281 35.209513 194.13281 35.527344 C 194.13281 35.931855 194.21321 36.249319 194.37695 36.480469 C 194.55032 36.711618 194.76326 36.900453 195.01367 37.044922 C 195.26408 37.179759 195.53737 37.284278 195.83594 37.361328 C 196.13451 37.438378 196.40974 37.530775 196.66016 37.636719 C 196.91057 37.733029 197.11752 37.863613 197.28125 38.027344 C 197.45461 38.181443 197.54102 38.40651 197.54102 38.705078 C 197.54102 38.916965 197.50282 39.1058 197.42578 39.269531 C 197.34868 39.433262 197.24226 39.567885 197.10742 39.673828 C 196.98222 39.779772 196.83352 39.862134 196.66016 39.919922 C 196.49643 39.977712 196.32362 40.005859 196.14062 40.005859 C 195.93838 40.005859 195.74549 39.971719 195.5625 39.904297 C 195.38914 39.836877 195.23041 39.756469 195.08594 39.660156 C 194.9511 39.554213 194.83055 39.441747 194.72461 39.326172 C 194.62831 39.210597 194.55597 39.106078 194.50781 39.009766 L 194.33398 39.009766 C 194.33398 39.154234 194.29988 39.337075 194.23242 39.558594 C 194.17462 39.770481 194.11833 39.939247 194.06055 40.064453 C 194.2628 40.180028 194.51198 40.280506 194.81055 40.367188 C 195.10912 40.453867 195.48079 40.498047 195.92383 40.498047 C 196.32834 40.498047 196.68803 40.439797 197.00586 40.324219 C 197.32369 40.199013 197.59489 40.030246 197.81641 39.818359 C 198.04756 39.596841 198.22036 39.351706 198.33594 39.082031 C 198.46114 38.812357 198.52344 38.537118 198.52344 38.257812 C 198.52344 37.853302 198.43704 37.535836 198.26367 37.304688 C 198.09994 37.073538 197.89299 36.894737 197.64258 36.769531 C 197.39217 36.634694 197.11693 36.534215 196.81836 36.466797 C 196.51979 36.389747 196.24651 36.303344 195.99609 36.207031 C 195.74568 36.110721 195.53273 35.980137 195.35938 35.816406 C 195.19564 35.643044 195.11328 35.401949 195.11328 35.09375 C 195.11328 34.881863 195.15338 34.699022 195.23047 34.544922 C 195.30757 34.390822 195.40396 34.266234 195.51953 34.169922 C 195.63511 34.073612 195.76373 34.001281 195.9082 33.953125 C 196.05267 33.904965 196.19733 33.880859 196.3418 33.880859 C 196.66926 33.880859 196.9445 33.971299 197.16602 34.154297 C 197.38753 34.33729 197.53623 34.544241 197.61328 34.775391 L 197.78711 34.775391 C 197.80641 34.659816 197.84861 34.497043 197.91602 34.285156 C 197.98342 34.073269 198.05576 33.894468 198.13281 33.75 C 197.91129 33.67295 197.67619 33.586547 197.42578 33.490234 C 197.185 33.393924 196.88565 33.345702 196.5293 33.345703 z M 206.58594 33.345703 C 206.21032 33.345703 205.85272 33.393923 205.51562 33.490234 C 205.18817 33.586544 204.89481 33.731204 204.63477 33.923828 C 204.38435 34.116453 204.18744 34.361588 204.04297 34.660156 C 203.8985 34.949093 203.82617 35.29666 203.82617 35.701172 C 203.82617 36.23089 203.95076 36.672941 204.20117 37.029297 C 204.45158 37.376021 204.79915 37.647219 205.24219 37.839844 L 205.24219 37.867188 C 205.12661 37.886447 205.00607 37.930628 204.88086 37.998047 C 204.75565 38.065467 204.64514 38.15187 204.54883 38.257812 C 204.45253 38.363756 204.37015 38.484303 204.30273 38.619141 C 204.24493 38.753978 204.2168 38.902675 204.2168 39.066406 C 204.2168 39.345712 204.2932 39.586808 204.44727 39.789062 C 204.60137 39.991318 204.82838 40.135975 205.12695 40.222656 L 205.12695 40.251953 C 204.93433 40.300113 204.74549 40.372438 204.5625 40.46875 C 204.37951 40.56506 204.21673 40.695644 204.07227 40.859375 C 203.9278 41.023106 203.80725 41.209988 203.71094 41.421875 C 203.62424 41.633762 203.58008 41.864822 203.58008 42.115234 C 203.58008 42.760527 203.84932 43.266827 204.38867 43.632812 C 204.92802 44.008431 205.66538 44.195313 206.59961 44.195312 C 207.20638 44.195312 207.72675 44.104872 208.16016 43.921875 C 208.59356 43.738882 208.94517 43.507821 209.21484 43.228516 C 209.49415 42.94921 209.69706 42.635787 209.82227 42.289062 C 209.9571 41.942339 210.02344 41.600765 210.02344 41.263672 C 210.02344 41.01326 209.97524 40.7822 209.87891 40.570312 C 209.79221 40.358426 209.64757 40.16959 209.44531 40.005859 C 209.25269 39.842128 208.99752 39.711547 208.67969 39.615234 C 208.37149 39.518924 207.99577 39.466662 207.55273 39.457031 C 207.28306 39.447431 207.01786 39.443359 206.75781 39.443359 C 206.49777 39.433759 206.23452 39.423692 205.96484 39.414062 C 205.63738 39.404463 205.41036 39.342132 205.28516 39.226562 C 205.16958 39.110989 205.11133 38.928146 205.11133 38.677734 C 205.11133 38.48511 205.18364 38.324425 205.32812 38.199219 C 205.48222 38.074013 205.64695 38.011719 205.82031 38.011719 C 205.95515 38.011719 206.08378 38.017714 206.20898 38.027344 C 206.34382 38.036944 206.47844 38.041016 206.61328 38.041016 C 207.43194 38.041016 208.08289 37.838105 208.56445 37.433594 C 209.05565 37.019451 209.30078 36.452811 209.30078 35.730469 C 209.30078 35.364482 209.21038 35.012874 209.02734 34.675781 C 208.84435 34.329057 208.60326 34.073887 208.30469 33.910156 L 208.33398 33.880859 C 208.59403 33.890459 208.85324 33.90861 209.11328 33.9375 C 209.38296 33.95676 209.65819 33.976834 209.9375 33.996094 L 209.9082 33.851562 L 209.9082 33.693359 L 209.9082 33.548828 C 209.9182 33.491038 209.9279 33.436828 209.9375 33.388672 C 209.69672 33.436832 209.30693 33.460937 208.76758 33.460938 C 208.66163 33.460938 208.52102 33.456936 208.34766 33.447266 C 208.17429 33.437666 207.97738 33.423557 207.75586 33.404297 C 207.49582 33.385037 207.27883 33.370958 207.10547 33.361328 C 206.94174 33.351728 206.76893 33.345703 206.58594 33.345703 z M 214.94922 33.345703 C 214.42913 33.345703 213.98109 33.46221 213.60547 33.693359 C 213.22985 33.914878 212.90835 34.232341 212.63867 34.646484 L 212.60938 34.646484 C 212.60938 34.261235 212.62344 33.875484 212.65234 33.490234 C 212.52714 33.509494 212.41662 33.529568 212.32031 33.548828 C 212.23361 33.558428 212.15127 33.5625 212.07422 33.5625 C 211.91049 33.5625 211.69546 33.538394 211.42578 33.490234 C 211.47398 33.904377 211.50212 34.352423 211.51172 34.833984 C 211.53102 35.305915 211.54102 35.758001 211.54102 36.191406 L 211.54102 37.695312 C 211.54102 38.128718 211.53102 38.584845 211.51172 39.066406 C 211.50172 39.538337 211.47388 39.968266 211.42578 40.353516 C 211.6473 40.334256 211.86233 40.324219 212.07422 40.324219 C 212.28611 40.324219 212.50309 40.334246 212.72461 40.353516 C 212.67641 39.968266 212.6442 39.538337 212.625 39.066406 C 212.615 38.584845 212.60938 38.128718 212.60938 37.695312 L 212.60938 36.466797 C 212.60938 35.715561 212.76407 35.132893 213.07227 34.71875 C 213.3901 34.304607 213.88636 34.097656 214.56055 34.097656 C 215.05174 34.097656 215.43554 34.284538 215.71484 34.660156 C 215.99415 35.026143 216.13477 35.570626 216.13477 36.292969 L 216.13477 37.173828 C 216.13477 37.73244 216.1207 38.276923 216.0918 38.806641 C 216.0725 39.336358 216.0525 39.852692 216.0332 40.353516 C 216.22583 40.334256 216.42274 40.324219 216.625 40.324219 C 216.83689 40.324219 217.0398 40.334246 217.23242 40.353516 C 217.22242 40.218678 217.21272 40.078062 217.20312 39.933594 L 217.20312 39.470703 L 217.20312 38.533203 C 217.20312 38.04201 217.21312 37.57989 217.23242 37.146484 C 217.25172 36.703448 217.26172 36.273518 217.26172 35.859375 C 217.26172 35.358551 217.18942 34.94869 217.04492 34.630859 C 216.91008 34.303398 216.73128 34.048228 216.50977 33.865234 C 216.28825 33.67261 216.03907 33.537986 215.75977 33.460938 C 215.49009 33.383888 215.21889 33.345703 214.94922 33.345703 z M 222.18359 33.345703 C 221.1049 33.345703 220.28113 33.683236 219.71289 34.357422 C 219.15428 35.031608 218.875 35.961843 218.875 37.146484 C 218.875 37.628046 218.9554 38.074138 219.11914 38.488281 C 219.2925 38.902424 219.5336 39.264066 219.8418 39.572266 C 220.15963 39.870834 220.5313 40.101894 220.95508 40.265625 C 221.38848 40.419725 221.86468 40.498047 222.38477 40.498047 C 222.84706 40.498047 223.29107 40.415687 223.71484 40.251953 C 224.14825 40.088222 224.50794 39.891306 224.79688 39.660156 L 224.88477 38.951172 L 224.8125 38.908203 C 224.68729 39.052672 224.53664 39.187294 224.36328 39.3125 C 224.19955 39.437706 224.0227 39.548219 223.83008 39.644531 C 223.63745 39.731211 223.43858 39.803541 223.23633 39.861328 C 223.03407 39.909488 222.83716 39.933594 222.64453 39.933594 C 222.24002 39.933594 221.88437 39.867254 221.57617 39.732422 C 221.26797 39.587953 221.00681 39.399118 220.79492 39.167969 C 220.58303 38.927188 220.42026 38.643868 220.30469 38.316406 C 220.19874 37.988944 220.14648 37.637337 220.14648 37.261719 L 220.14648 37.074219 C 220.14648 36.977909 220.15046 36.905578 220.16016 36.857422 C 220.47799 36.847822 220.79141 36.837755 221.09961 36.828125 C 221.41744 36.818525 221.7349 36.8125 222.05273 36.8125 C 222.57282 36.8125 223.0872 36.818495 223.59766 36.828125 C 224.10811 36.837725 224.62444 36.847792 225.14453 36.857422 C 225.15453 36.761112 225.1582 36.668712 225.1582 36.582031 C 225.1682 36.485721 225.17383 36.389281 225.17383 36.292969 C 225.17383 35.888457 225.10952 35.508699 224.98438 35.152344 C 224.8688 34.795988 224.68596 34.486606 224.43555 34.226562 C 224.18513 33.956889 223.87366 33.745897 223.49805 33.591797 C 223.13206 33.428066 222.69405 33.345706 222.18359 33.345703 z M 229.71094 33.345703 C 229.00786 33.345703 228.37098 33.866077 227.80273 34.90625 L 227.77344 34.892578 L 227.77344 34.314453 C 227.78344 34.112197 227.8071 33.836959 227.8457 33.490234 C 227.73976 33.509494 227.63928 33.529568 227.54297 33.548828 C 227.44667 33.558428 227.35621 33.5625 227.26953 33.5625 C 227.16359 33.5625 227.06116 33.558498 226.96484 33.548828 C 226.86854 33.529568 226.76805 33.509494 226.66211 33.490234 C 226.69101 34.125896 226.70508 34.690448 226.70508 35.181641 C 226.71508 35.672833 226.71875 36.104851 226.71875 36.480469 L 226.71875 36.943359 C 226.71875 37.762014 226.71478 38.455195 226.70508 39.023438 C 226.70508 39.582048 226.69101 40.026054 226.66211 40.353516 C 226.85473 40.334256 227.05764 40.324219 227.26953 40.324219 C 227.46216 40.324219 227.65308 40.334246 227.8457 40.353516 C 227.8168 40.141629 227.79866 39.86639 227.78906 39.529297 L 227.78906 38.041016 L 227.78906 36.451172 C 227.78906 36.171866 227.82317 35.912656 227.89062 35.671875 C 227.95802 35.421463 228.05448 35.210472 228.17969 35.037109 C 228.30489 34.854116 228.45764 34.709459 228.64062 34.603516 C 228.82362 34.497572 229.03057 34.443359 229.26172 34.443359 C 229.40619 34.443359 229.5468 34.467465 229.68164 34.515625 C 229.82611 34.563785 229.92255 34.617994 229.9707 34.675781 L 230.07227 34.603516 C 230.07227 34.410891 230.07624 34.197946 230.08594 33.966797 C 230.09594 33.726016 230.12378 33.549169 230.17188 33.433594 C 230.07558 33.395074 229.99515 33.370958 229.92773 33.361328 C 229.86993 33.351728 229.79762 33.345703 229.71094 33.345703 z M 200.45508 33.490234 C 200.50318 33.904377 200.53142 34.352423 200.54102 34.833984 C 200.56032 35.305915 200.57031 35.758001 200.57031 36.191406 L 200.57031 37.695312 C 200.57031 38.128718 200.56032 38.584845 200.54102 39.066406 C 200.53102 39.538337 200.50318 39.968266 200.45508 40.353516 C 200.6766 40.334256 200.89358 40.324219 201.10547 40.324219 C 201.31736 40.324219 201.53434 40.334246 201.75586 40.353516 C 201.70766 39.968266 201.67356 39.538337 201.6543 39.066406 C 201.6443 38.584845 201.63867 38.128718 201.63867 37.695312 L 201.63867 36.191406 C 201.63867 35.758001 201.6447 35.305915 201.6543 34.833984 C 201.6736 34.352423 201.7077 33.904377 201.75586 33.490234 C 201.48618 33.538394 201.2692 33.5625 201.10547 33.5625 C 200.94174 33.5625 200.72475 33.538394 200.45508 33.490234 z M 143.67969 33.546875 C 144.06969 33.546875 144.38305 33.63078 144.62305 33.800781 C 144.86305 33.970781 145.0497 34.187266 145.17969 34.447266 C 145.3197 34.707265 145.40923 34.987109 145.44922 35.287109 C 145.49923 35.587109 145.52344 35.870625 145.52344 36.140625 C 145.20344 36.150641 144.8732 36.161883 144.5332 36.171875 C 144.1932 36.181867 143.8593 36.1875 143.5293 36.1875 C 143.2093 36.1875 142.87906 36.181867 142.53906 36.171875 C 142.20906 36.161859 141.88812 36.150617 141.57812 36.140625 C 141.59811 35.870625 141.64851 35.587109 141.72852 35.287109 C 141.81853 34.977109 141.94352 34.697266 142.10352 34.447266 C 142.27351 34.187266 142.48437 33.970782 142.73438 33.800781 C 142.99436 33.63078 143.30969 33.546875 143.67969 33.546875 z M 206.59961 33.765625 C 207.07154 33.765625 207.4513 33.924357 207.74023 34.242188 C 208.02917 34.560017 208.17383 35.022139 208.17383 35.628906 C 208.17383 35.898581 208.14162 36.157791 208.07422 36.408203 C 208.01642 36.648984 207.91999 36.865969 207.78516 37.058594 C 207.65995 37.241587 207.49522 37.390285 207.29297 37.505859 C 207.10034 37.611803 206.86524 37.666016 206.58594 37.666016 C 206.02733 37.666016 205.61342 37.493209 205.34375 37.146484 C 205.08371 36.790129 204.95313 36.307939 204.95312 35.701172 C 204.95312 35.113667 205.09778 34.645552 205.38672 34.298828 C 205.67566 33.942473 206.07952 33.765625 206.59961 33.765625 z M 190.12891 33.808594 C 190.50452 33.808594 190.80791 33.890954 191.03906 34.054688 C 191.27021 34.218417 191.44901 34.425369 191.57422 34.675781 C 191.70906 34.926193 191.79546 35.195438 191.83398 35.484375 C 191.88218 35.773312 191.90625 36.048551 191.90625 36.308594 C 191.59805 36.318194 191.28059 36.326308 190.95312 36.335938 C 190.62567 36.345537 190.3022 36.351563 189.98438 36.351562 C 189.67618 36.351562 189.35871 36.345557 189.03125 36.335938 C 188.71342 36.326338 188.40599 36.318224 188.10742 36.308594 C 188.12672 36.048551 188.17492 35.773312 188.25195 35.484375 C 188.33865 35.185807 188.45918 34.916562 188.61328 34.675781 C 188.77701 34.425369 188.97797 34.218417 189.21875 34.054688 C 189.46916 33.890957 189.77255 33.808594 190.12891 33.808594 z M 222.21094 33.808594 C 222.58656 33.808594 222.88994 33.890954 223.12109 34.054688 C 223.35224 34.218417 223.53104 34.425369 223.65625 34.675781 C 223.79109 34.926193 223.87749 35.195438 223.91602 35.484375 C 223.96412 35.773312 223.98828 36.048551 223.98828 36.308594 C 223.68008 36.318194 223.36262 36.326308 223.03516 36.335938 C 222.70769 36.345537 222.38424 36.351563 222.06641 36.351562 C 221.75821 36.351562 221.44074 36.345557 221.11328 36.335938 C 220.79545 36.326338 220.48802 36.318224 220.18945 36.308594 C 220.20875 36.048551 220.25695 35.773312 220.33398 35.484375 C 220.42068 35.185807 220.54121 34.916562 220.69531 34.675781 C 220.85904 34.425369 221.06 34.218417 221.30078 34.054688 C 221.55119 33.890957 221.85458 33.808594 222.21094 33.808594 z M 232.39648 38.849609 C 232.17497 38.849609 231.98209 38.931969 231.81836 39.095703 C 231.65463 39.259434 231.57422 39.45231 231.57422 39.673828 C 231.57422 39.895346 231.65462 40.082228 231.81836 40.236328 C 231.98209 40.380797 232.17497 40.453125 232.39648 40.453125 C 232.618 40.453125 232.81088 40.380795 232.97461 40.236328 C 233.13834 40.082228 233.2207 39.895346 233.2207 39.673828 C 233.2207 39.45231 233.1383 39.259434 232.97461 39.095703 C 232.81088 38.931972 232.618 38.849609 232.39648 38.849609 z M 206.77344 40.324219 C 207.55357 40.324219 208.11213 40.438772 208.44922 40.669922 C 208.78631 40.901071 208.95508 41.306892 208.95508 41.884766 C 208.95508 42.212227 208.88678 42.491507 208.75195 42.722656 C 208.61712 42.963437 208.43832 43.160353 208.2168 43.314453 C 208.00491 43.468553 207.75977 43.583106 207.48047 43.660156 C 207.20116 43.737206 206.91784 43.777344 206.62891 43.777344 C 206.33034 43.777344 206.05106 43.743204 205.79102 43.675781 C 205.53097 43.608361 205.30395 43.50189 205.11133 43.357422 C 204.92833 43.212953 204.77964 43.026071 204.66406 42.794922 C 204.55812 42.563772 204.50586 42.284493 204.50586 41.957031 C 204.50586 41.340632 204.70278 40.910703 205.09766 40.669922 C 205.49254 40.438772 206.0511 40.324219 206.77344 40.324219 z "
         transform="matrix(0.28222222,0,0,0.28222222,18.952024,-0.97160926)"
         id="text4814" />
    </g>
  </g>
</svg>
