<?xml version="1.0" encoding="UTF-8" standalone="no"?>
<!-- Created with Inkscape (http://www.inkscape.org/) -->

<svg
   xmlns:dc="http://purl.org/dc/elements/1.1/"
   xmlns:cc="http://creativecommons.org/ns#"
   xmlns:rdf="http://www.w3.org/1999/02/22-rdf-syntax-ns#"
   xmlns:svg="http://www.w3.org/2000/svg"
   xmlns="http://www.w3.org/2000/svg"
   xmlns:sodipodi="http://sodipodi.sourceforge.net/DTD/sodipodi-0.dtd"
   xmlns:inkscape="http://www.inkscape.org/namespaces/inkscape"
   width="48"
   height="48"
   viewBox="0 0 48.000003 48.000002"
   id="svg2"
   version="1.1"
   inkscape:version="0.91 r13725"
   sodipodi:docname="logo.svg">
  <defs
     id="defs4" />
  <sodipodi:namedview
     id="base"
     pagecolor="#ffffff"
     bordercolor="#666666"
     borderopacity="1.0"
     inkscape:pageopacity="0.0"
     inkscape:pageshadow="2"
     inkscape:zoom="5.6568542"
     inkscape:cx="-22.005095"
     inkscape:cy="17.948636"
     inkscape:document-units="px"
     inkscape:current-layer="text3360"
     showgrid="false"
     inkscape:window-width="1440"
     inkscape:window-height="819"
     inkscape:window-x="0"
     inkscape:window-y="1"
     inkscape:window-maximized="1"
     showguides="true"
     inkscape:guide-bbox="true"
     fit-margin-top="0"
     fit-margin-left="0"
     fit-margin-right="0"
     fit-margin-bottom="0"
     units="px" />
  <metadata
     id="metadata7">
    <rdf:RDF>
      <cc:Work
         rdf:about="">
        <dc:format>image/svg+xml</dc:format>
        <dc:type
           rdf:resource="http://purl.org/dc/dcmitype/StillImage" />
        <dc:title />
      </cc:Work>
    </rdf:RDF>
  </metadata>
  <g
     inkscape:label="Layer 1"
     inkscape:groupmode="layer"
     id="layer1"
     transform="translate(-154.14178,-174.13471)">
    <rect
       id="rect3401"
       width="48.000004"
       height="48.000004"
       x="153.99356"
       y="174.1347"
       style="fill:#005b99;fill-opacity:1" />
    <g
       transform="matrix(0.55231003,0,0,0.55231003,19.756151,104.14903)"
       id="g4256" />
    <text
       sodipodi:linespacing="125%"
       id="text4194"
       y="190.66846"
       x="146.71716"
       style="font-style:normal;font-weight:normal;font-size:40.00000381px;line-height:125%;font-family:sans-serif;letter-spacing:0px;word-spacing:0px;fill:#000000;fill-opacity:1;stroke:none;stroke-width:1px;stroke-linecap:butt;stroke-linejoin:miter;stroke-opacity:1"
       xml:space="preserve"><tspan
         y="190.66846"
         x="146.71716"
         id="tspan4196"
         sodipodi:role="line" /></text>
    <text
       sodipodi:linespacing="125%"
       id="text4198"
       y="166.62683"
       x="158.5612"
       style="font-style:normal;font-weight:normal;font-size:40.00000381px;line-height:125%;font-family:sans-serif;letter-spacing:0px;word-spacing:0px;fill:#000000;fill-opacity:1;stroke:none;stroke-width:1px;stroke-linecap:butt;stroke-linejoin:miter;stroke-opacity:1"
       xml:space="preserve"><tspan
         y="166.62683"
         x="158.5612"
         id="tspan4200"
         sodipodi:role="line" /></text>
    <g
       style="font-style:normal;font-variant:normal;font-weight:normal;font-stretch:normal;font-size:29.44439697px;line-height:125%;font-family:Optima;-inkscape-font-specification:Optima;letter-spacing:0px;word-spacing:0px;fill:#fcd116;fill-opacity:1;stroke:none;stroke-width:1px;stroke-linecap:butt;stroke-linejoin:miter;stroke-opacity:1"
       id="text3360">
      <path
         d="m 161.06998,185.04537 4.57125,0.25395 q -0.0423,-0.29628 -0.0847,-0.55024 -0.0423,-0.29628 -0.0423,-0.59257 0,-0.29628 0.0423,-0.55024 0.0423,-0.29628 0.0847,-0.59257 -1.35445,0.0847 -2.75121,0.16931 -1.35445,0.0423 -2.75122,0.0423 -0.93117,0 -1.82003,-0.0423 -0.88885,-0.0846 -1.7777,-0.16931 0.12698,1.65073 0.1693,4.6559 0.0423,2.96284 0.0423,6.81454 l 0,5.29079 0,5.7987 q 0,2.07399 0,3.93635 0,1.86236 -0.0423,3.34378 -0.0423,1.48142 -0.0847,2.62423 0,1.14281 -0.0847,1.77771 1.10048,-0.0847 2.20097,-0.16931 1.14281,-0.0423 2.24329,-0.0423 1.18514,0 2.37027,0.0423 1.18514,0.0847 2.28563,0.16931 -0.0423,-0.33861 -0.0847,-0.6349 -0.0423,-0.25396 -0.0423,-0.59257 0,-0.29628 0.0423,-0.59257 0.0423,-0.29628 0.0847,-0.59256 -0.97351,0.0847 -2.32795,0.1693 -1.31212,0.0846 -2.2433,0.0846 -0.0423,-0.42326 -0.12698,-1.82003 -0.0423,-1.35444 -0.0847,-3.3861 -0.0423,-2.03167 -0.0847,-4.48659 0,-2.49726 0,-5.03684 0,-2.83586 0,-5.03683 0.0423,-2.20097 0.0847,-3.97867 0.0423,-1.82003 0.0847,-3.34378 0.0847,-1.52375 0.12698,-2.96284 z"
         style="fill:#fcd116;fill-opacity:1"
         id="path4151"
         inkscape:connector-curvature="0" />
      <path
         d="m 190.34591,185.29932 4.57124,-0.25395 q 0.0423,1.43909 0.0847,2.96284 0.0846,1.52375 0.12697,3.34378 0.0423,1.7777 0.0423,3.97867 0.0423,2.20097 0.0423,5.03683 0,2.53958 -0.0423,5.03684 0,2.45492 -0.0423,4.48659 -0.0423,2.03166 -0.12697,3.3861 -0.0423,1.39677 -0.0847,1.82003 -0.93118,0 -2.28562,-0.0846 -1.31211,-0.0847 -2.28562,-0.1693 0.0423,0.29628 0.0847,0.59256 0.0423,0.29629 0.0423,0.59257 0,0.33861 -0.0423,0.59257 -0.0423,0.29629 -0.0847,0.6349 1.10048,-0.0847 2.28562,-0.16931 1.18514,-0.0423 2.37028,-0.0423 1.10048,0 2.20096,0.0423 1.14281,0.0847 2.2433,0.16931 -0.0423,-0.6349 -0.0846,-1.77771 -0.0423,-1.14281 -0.0847,-2.62423 -0.0423,-1.48142 -0.0423,-3.34378 0,-1.86236 0,-3.93635 l 0,-5.7987 0,-5.29079 q 0,-3.8517 0.0423,-6.81454 0.0423,-3.00517 0.16931,-4.6559 -0.88885,0.0847 -1.77771,0.16931 -0.88885,0.0423 -1.82003,0.0423 -1.39677,0 -2.79354,-0.0423 -1.35444,-0.0846 -2.70888,-0.16931 0.0423,0.29629 0.0847,0.59257 0.0423,0.25396 0.0423,0.55024 0,0.29629 -0.0423,0.59257 -0.0423,0.25396 -0.0847,0.55024 z"
         style="fill:#fcd116;fill-opacity:1"
         id="path4153" />
    </g>
    <g
       style="font-style:normal;font-variant:normal;font-weight:normal;font-stretch:normal;font-size:29.07385635px;line-height:125%;font-family:Optima;-inkscape-font-specification:Optima;letter-spacing:0px;word-spacing:0px;fill:#fcd116;fill-opacity:1;stroke:none;stroke-width:1px;stroke-linecap:butt;stroke-linejoin:miter;stroke-opacity:1"
       id="text4184" />
    <g
       style="font-style:normal;font-variant:normal;font-weight:normal;font-stretch:normal;font-size:40.00000381px;line-height:125%;font-family:Optima;-inkscape-font-specification:Optima;letter-spacing:0px;word-spacing:0px;fill:#ffffff;fill-opacity:1;stroke:none;stroke-width:1px;stroke-linecap:butt;stroke-linejoin:miter;stroke-opacity:1"
       id="text4202">
      <path
         id="path4148"
         style=""
         d="m 187.69572,178.83675 -5.88,5.96 1.68,0 5.88,-3.76 q 0.48,-0.32 0.96,-0.72 0.48,-0.44 0.48,-1.16 0,-0.64 -0.48,-0.96 -0.44,-0.32 -0.84,-0.32 -0.84,0 -1.8,0.96 z m -19.0202,14.52299 0.16718,-3.13452 q -0.83588,0.0836 -1.58816,0.16717 -0.71049,0.0418 -1.46278,0.0418 -0.75229,0 -1.50457,-0.0418 -0.71049,-0.0836 -1.46278,-0.16717 0.20897,2.25685 0.25076,4.51371 0.0836,2.21507 0.0836,4.76448 l 0,1.67175 q 0,2.54941 -0.0836,4.80627 -0.0418,2.25686 -0.25076,4.34654 0.58511,-0.0836 1.37919,-0.0836 0.79408,0 1.75533,0 0.96126,0 1.75534,0 0.83587,0 1.37919,0.0836 -0.20897,-2.08968 -0.29256,-4.34654 -0.0418,-2.25686 -0.0418,-4.80627 l 0,-1.67175 q 0,-2.88376 0.87767,-4.51372 0.87766,-1.62995 2.75838,-1.62995 1.75533,0 2.38224,1.37919 0.6269,1.37919 0.6269,3.88681 l 0,2.54942 q 0,2.54941 -0.0836,4.80627 -0.0418,2.25686 -0.25077,4.34654 0.58512,-0.0836 1.3792,-0.0836 0.79408,0 1.75533,0 0.96125,0 1.75533,0 0.83588,0 1.3792,0.0836 -0.20897,-2.08968 -0.29256,-4.34654 -0.0418,-2.25686 -0.0418,-4.80627 l 0,-3.00915 q 0,-0.75228 0.12538,-1.58816 0.12538,-0.83587 0.50152,-1.54636 0.37614,-0.75229 1.00305,-1.21202 0.6687,-0.45973 1.67175,-0.45973 1.58816,0 2.46582,1.25381 0.87767,1.21202 0.87767,3.84502 0,3.80322 -0.0836,6.77057 -0.0836,2.92556 -0.37614,5.09883 0.54332,-0.0836 1.37919,-0.0836 0.83587,0 1.75533,0 0.91947,0 1.75534,0 0.83587,0 1.37919,0.0836 -0.0836,-1.46278 -0.16717,-3.00914 -0.0418,-1.58816 -0.0418,-2.92556 0,-1.62995 0.0836,-3.25991 0.0836,-1.62995 0.0836,-3.76143 0,-4.05398 -1.71354,-5.85111 -1.67175,-1.83892 -4.80628,-1.83892 -1.88071,0 -3.55246,1.04484 -1.67175,1.00305 -2.92556,2.92556 -0.75228,-1.92251 -2.13147,-2.92556 -1.3374,-1.04484 -3.21812,-1.04484 -2.00609,0 -3.59425,0.96125 -1.54637,0.96126 -2.71659,2.71659 l -0.0836,0 z" />
    </g>
  </g>
</svg>
