<?xml version="1.0" encoding="UTF-8" standalone="no"?>
<!-- Created with Inkscape (http://www.inkscape.org/) -->

<svg
   xmlns:dc="http://purl.org/dc/elements/1.1/"
   xmlns:cc="http://creativecommons.org/ns#"
   xmlns:rdf="http://www.w3.org/1999/02/22-rdf-syntax-ns#"
   xmlns:svg="http://www.w3.org/2000/svg"
   xmlns="http://www.w3.org/2000/svg"
   xmlns:sodipodi="http://sodipodi.sourceforge.net/DTD/sodipodi-0.dtd"
   xmlns:inkscape="http://www.inkscape.org/namespaces/inkscape"
   width="48"
   height="48"
   viewBox="0 0 48.000003 48.000002"
   id="svg2"
   version="1.1"
   inkscape:version="0.91 r13725"
   sodipodi:docname="logo-print.svg">
  <defs
     id="defs4" />
  <sodipodi:namedview
     id="base"
     pagecolor="#ffffff"
     bordercolor="#666666"
     borderopacity="1.0"
     inkscape:pageopacity="0.0"
     inkscape:pageshadow="2"
     inkscape:zoom="5.6568542"
     inkscape:cx="29.6137"
     inkscape:cy="25.019705"
     inkscape:document-units="px"
     inkscape:current-layer="layer1"
     showgrid="false"
     inkscape:window-width="1440"
     inkscape:window-height="819"
     inkscape:window-x="0"
     inkscape:window-y="1"
     inkscape:window-maximized="1"
     showguides="true"
     inkscape:guide-bbox="true"
     fit-margin-top="0"
     fit-margin-left="0"
     fit-margin-right="0"
     fit-margin-bottom="0"
     units="px" />
  <metadata
     id="metadata7">
    <rdf:RDF>
      <cc:Work
         rdf:about="">
        <dc:format>image/svg+xml</dc:format>
        <dc:type
           rdf:resource="http://purl.org/dc/dcmitype/StillImage" />
        <dc:title />
      </cc:Work>
    </rdf:RDF>
  </metadata>
  <g
     inkscape:label="Layer 1"
     inkscape:groupmode="layer"
     id="layer1"
     transform="translate(-154.14178,-174.13471)">
    <text
       sodipodi:linespacing="125%"
       id="text4194"
       y="190.66846"
       x="146.71716"
       style="font-style:normal;font-weight:normal;font-size:40.00000381px;line-height:125%;font-family:sans-serif;letter-spacing:0px;word-spacing:0px;fill:#000000;fill-opacity:1;stroke:none;stroke-width:1px;stroke-linecap:butt;stroke-linejoin:miter;stroke-opacity:1"
       xml:space="preserve"><tspan
         y="190.66846"
         x="146.71716"
         id="tspan4196"
         sodipodi:role="line" /></text>
    <text
       sodipodi:linespacing="125%"
       id="text4198"
       y="166.62683"
       x="158.5612"
       style="font-style:normal;font-weight:normal;font-size:40.00000381px;line-height:125%;font-family:sans-serif;letter-spacing:0px;word-spacing:0px;fill:#000000;fill-opacity:1;stroke:none;stroke-width:1px;stroke-linecap:butt;stroke-linejoin:miter;stroke-opacity:1"
       xml:space="preserve"><tspan
         y="166.62683"
         x="158.5612"
         id="tspan4200"
         sodipodi:role="line" /></text>
    <g
       style="font-style:normal;font-variant:normal;font-weight:normal;font-stretch:normal;font-size:22.0924015px;line-height:125%;font-family:Optima;-inkscape-font-specification:Optima;letter-spacing:0px;word-spacing:0px;fill:#000000;fill-opacity:1;stroke:none;stroke-width:1px;stroke-linecap:butt;stroke-linejoin:miter;stroke-opacity:1"
       id="text3360">
      <g
         style="font-style:normal;font-weight:normal;font-size:40px;line-height:125%;font-family:sans-serif;letter-spacing:0px;word-spacing:0px;fill:#000000;fill-opacity:1;stroke:none;stroke-width:1px;stroke-linecap:butt;stroke-linejoin:miter;stroke-opacity:1"
         id="flowRoot4194" />
    </g>
    <g
       style="font-style:normal;font-variant:normal;font-weight:normal;font-stretch:normal;font-size:29.07385635px;line-height:125%;font-family:Optima;-inkscape-font-specification:Optima;letter-spacing:0px;word-spacing:0px;fill:#000000;fill-opacity:1;stroke:none;stroke-width:1px;stroke-linecap:butt;stroke-linejoin:miter;stroke-opacity:1"
       id="text4184" />
    <g
       style="font-style:normal;font-weight:normal;font-size:40.00000381px;line-height:125%;font-family:sans-serif;letter-spacing:0px;word-spacing:0px;fill:#000000;fill-opacity:1;stroke:none;stroke-width:1px;stroke-linecap:butt;stroke-linejoin:miter;stroke-opacity:1"
       id="text4202">
      <path
         id="path4205"
         style=""
         d="m 188.61057,179.16456 3.88672,0 -6.36719,7.34375 -2.98828,0 5.46875,-7.34375 z m -19.93505,14.19518 0.16718,-3.13452 q -0.83588,0.0836 -1.58816,0.16717 -0.71049,0.0418 -1.46278,0.0418 -0.75229,0 -1.50457,-0.0418 -0.71049,-0.0836 -1.46278,-0.16717 0.20897,2.25685 0.25076,4.51371 0.0836,2.21507 0.0836,4.76448 l 0,1.67175 q 0,2.54941 -0.0836,4.80627 -0.0418,2.25686 -0.25076,4.34654 0.58511,-0.0836 1.37919,-0.0836 0.79408,0 1.75533,0 0.96126,0 1.75534,0 0.83587,0 1.37919,0.0836 -0.20897,-2.08968 -0.29256,-4.34654 -0.0418,-2.25686 -0.0418,-4.80627 l 0,-1.67175 q 0,-2.88376 0.87767,-4.51372 0.87766,-1.62995 2.75838,-1.62995 1.75533,0 2.38224,1.37919 0.6269,1.37919 0.6269,3.88681 l 0,2.54942 q 0,2.54941 -0.0836,4.80627 -0.0418,2.25686 -0.25077,4.34654 0.58512,-0.0836 1.3792,-0.0836 0.79408,0 1.75533,0 0.96125,0 1.75533,0 0.83588,0 1.3792,0.0836 -0.20897,-2.08968 -0.29256,-4.34654 -0.0418,-2.25686 -0.0418,-4.80627 l 0,-3.00915 q 0,-0.75228 0.12538,-1.58816 0.12538,-0.83587 0.50152,-1.54636 0.37614,-0.75229 1.00305,-1.21202 0.6687,-0.45973 1.67175,-0.45973 1.58816,0 2.46582,1.25381 0.87767,1.21202 0.87767,3.84502 0,3.80322 -0.0836,6.77057 -0.0836,2.92556 -0.37614,5.09883 0.54332,-0.0836 1.37919,-0.0836 0.83587,0 1.75533,0 0.91947,0 1.75534,0 0.83587,0 1.37919,0.0836 -0.0836,-1.46278 -0.16717,-3.00914 -0.0418,-1.58816 -0.0418,-2.92556 0,-1.62995 0.0836,-3.25991 0.0836,-1.62995 0.0836,-3.76143 0,-4.05398 -1.71354,-5.85111 -1.67175,-1.83892 -4.80628,-1.83892 -1.88071,0 -3.55246,1.04484 -1.67175,1.00305 -2.92556,2.92556 -0.75228,-1.92251 -2.13147,-2.92556 -1.3374,-1.04484 -3.21812,-1.04484 -2.00609,0 -3.59425,0.96125 -1.54637,0.96126 -2.71659,2.71659 l -0.0836,0 z m 23.16927,-4.23204 3.42984,-0.19055 c 0.0212,0.71985 0.0424,1.46086 0.0635,2.22305 0.0423,0.76219 0.0741,1.59848 0.0953,2.50887 0.0212,0.88922 0.0318,1.8843 0.0318,2.98523 0.0212,1.10094 0.0318,2.36067 0.0318,3.77918 0,1.27031 -0.0106,2.53004 -0.0318,3.77918 0,1.22797 -0.0106,2.35008 -0.0318,3.36633 -0.0212,1.01625 -0.053,1.86313 -0.0953,2.54063 -0.0212,0.69867 -0.0424,1.15387 -0.0635,1.36559 -0.46578,0 -1.03742,-0.0212 -1.71492,-0.0635 -0.65633,-0.0423 -1.22797,-0.0847 -1.71492,-0.12703 0.0212,0.1482 0.0424,0.2964 0.0635,0.44461 0.0212,0.1482 0.0318,0.2964 0.0318,0.44461 0,0.16937 -0.0106,0.31758 -0.0318,0.44461 -0.0212,0.1482 -0.0424,0.30699 -0.0635,0.47637 0.55047,-0.0423 1.12211,-0.0847 1.71492,-0.12704 0.59281,-0.0212 1.18563,-0.0318 1.77844,-0.0318 0.55047,0 1.10093,0.0106 1.6514,0.0318 0.57165,0.0423 1.1327,0.0847 1.68317,0.12704 -0.0212,-0.31758 -0.0424,-0.76219 -0.0635,-1.33383 -0.0211,-0.57164 -0.0423,-1.22797 -0.0635,-1.96899 -0.0212,-0.74101 -0.0318,-1.5773 -0.0318,-2.50887 l 0,-2.95347 0,-4.35083 0,-3.96972 c 0,-1.92665 0.0106,-3.63098 0.0318,-5.11301 0.0212,-1.50321 0.0635,-2.66766 0.12703,-3.49337 -0.44461,0.0423 -0.88922,0.0847 -1.33383,0.12704 -0.44461,0.0212 -0.8998,0.0318 -1.36559,0.0318 -0.69867,0 -1.39734,-0.0106 -2.09601,-0.0318 -0.6775,-0.0423 -1.355,-0.0847 -2.0325,-0.12704 0.0212,0.14821 0.0424,0.29641 0.0635,0.44461 0.0212,0.12703 0.0318,0.26465 0.0318,0.41286 0,0.1482 -0.0106,0.2964 -0.0318,0.44461 -0.0212,0.12703 -0.0424,0.26464 -0.0635,0.41285 z m -30.83586,-0.19055 3.42985,0.19055 c -0.0212,-0.14821 -0.0424,-0.28582 -0.0635,-0.41285 -0.0212,-0.14821 -0.0318,-0.29641 -0.0318,-0.44461 0,-0.14821 0.0106,-0.28583 0.0318,-0.41286 0.0212,-0.1482 0.0424,-0.2964 0.0635,-0.44461 -0.6775,0.0423 -1.36559,0.0847 -2.06426,0.12704 -0.6775,0.0212 -1.36559,0.0318 -2.06426,0.0318 -0.46578,0 -0.92098,-0.0106 -1.36559,-0.0318 -0.44461,-0.0423 -0.88922,-0.0847 -1.33383,-0.12704 0.0635,0.82571 0.10588,1.99016 0.12703,3.49337 0.0212,1.48203 0.0318,3.18636 0.0318,5.11301 l 0,3.96972 0,4.35083 0,2.95347 c 0,0.93157 -0.0106,1.76786 -0.0318,2.50887 -0.0211,0.74102 -0.0423,1.39735 -0.0635,1.96899 0,0.57164 -0.0212,1.01625 -0.0635,1.33383 0.55047,-0.0423 1.10094,-0.0847 1.65141,-0.12704 0.57164,-0.0212 1.13269,-0.0318 1.68316,-0.0318 0.59281,0 1.18563,0.0106 1.77844,0.0318 0.59281,0.0423 1.16446,0.0847 1.71493,0.12704 -0.0212,-0.16938 -0.0424,-0.32817 -0.0635,-0.47637 -0.0212,-0.12703 -0.0318,-0.27524 -0.0318,-0.44461 0,-0.14821 0.0106,-0.29641 0.0318,-0.44461 0.0212,-0.14821 0.0424,-0.29641 0.0635,-0.44461 -0.48695,0.0423 -1.06918,0.0847 -1.74668,0.12703 -0.65633,0.0423 -1.21739,0.0635 -1.68317,0.0635 -0.0212,-0.21172 -0.053,-0.66692 -0.0953,-1.36559 -0.0212,-0.6775 -0.0424,-1.52438 -0.0635,-2.54063 -0.0212,-1.01625 -0.0424,-2.13836 -0.0635,-3.36633 l 0,-3.77918 0,-3.77918 c 0.0211,-1.10093 0.0423,-2.09601 0.0635,-2.98523 0.0212,-0.91039 0.0424,-1.74668 0.0635,-2.50887 0.0423,-0.76219 0.0741,-1.5032 0.0953,-2.22305 z" />
    </g>
  </g>
</svg>
